<?xml version="1.0" standalone="no"?>
<!DOCTYPE svg PUBLIC "-//W3C//DTD SVG 1.1//EN" "http://www.w3.org/Graphics/SVG/1.1/DTD/svg11.dtd" >
<!--
2013-9-30: Created.
-->
<svg>
<metadata>
Created by iconfont
</metadata>
<defs>

<font id="iconfont" horiz-adv-x="1024" >
  <font-face
    font-family="iconfont"
    font-weight="500"
    font-stretch="normal"
    units-per-em="1024"
    ascent="896"
    descent="-128"
  />
    <missing-glyph />
    
    <glyph glyph-name="x" unicode="x" horiz-adv-x="1001"
d="M281 543q-27 -1 -53 -1h-83q-18 0 -36.5 -6t-32.5 -18.5t-23 -32t-9 -45.5v-76h912v41q0 16 -0.5 30t-0.5 18q0 13 -5 29t-17 29.5t-31.5 22.5t-49.5 9h-133v-97h-438v97zM955 310v-52q0 -23 0.5 -52t0.5 -58t-10.5 -47.5t-26 -30t-33 -16t-31.5 -4.5q-14 -1 -29.5 -0.5
t-29.5 0.5h-32l-45 128h-439l-44 -128h-29h-34q-20 0 -45 1q-25 0 -41 9.5t-25.5 23t-13.5 29.5t-4 30v167h911zM163 247q-12 0 -21 -8.5t-9 -21.5t9 -21.5t21 -8.5q13 0 22 8.5t9 21.5t-9 21.5t-22 8.5zM316 123q-8 -26 -14 -48q-5 -19 -10.5 -37t-7.5 -25t-3 -15t1 -14.5
t9.5 -10.5t21.5 -4h37h67h81h80h64h36q23 0 34 12t2 38q-5 13 -9.5 30.5t-9.5 34.5q-5 19 -11 39h-368zM336 498v228q0 11 2.5 23t10 21.5t20.5 15.5t34 6h188q31 0 51.5 -14.5t20.5 -52.5v-227h-327z" />
    

    
    <glyph glyph-name="shangjiaqun" unicode="&#59037;" d="M632.832 760.832q23.552-5.12 38.912-25.088t17.408-49.664q0-9.216 1.024-28.672t1.024-40.96-1.536-38.912-5.632-21.504q-6.144-7.168-11.776-6.656t-5.632-5.632q0-3.072-1.536-21.504t-8.704-51.2q-4.096-17.408-11.776-31.232t-15.872-25.088q-10.24-12.288-20.48-22.528-1.024-13.312-1.024-25.6l0-21.504q0-11.264 1.024-17.408 1.024-12.288 6.144-17.408t20.48-9.216q5.12-2.048 18.432-6.144t31.744-10.752 38.4-13.824 38.4-13.824 32.768-12.288 21.504-8.704q20.48-10.24 27.136-21.504t11.776-28.672q2.048-9.216 5.632-33.792t7.68-51.2 6.656-50.176 3.584-29.696q1.024-13.312-4.608-22.528t-26.112-14.336q-17.408-4.096-50.688-8.704t-77.312-8.704-96.768-6.656-111.104-2.56-111.616 2.048-97.792 5.632-78.848 8.192-53.76 9.728q-4.096 1.024-10.24 4.096t-11.776 7.68-8.704 11.264-2.048 14.848q1.024 7.168 5.632 32.256t10.752 53.76 11.264 53.76 7.168 31.232q4.096 12.288 11.776 25.6t26.112 27.648q9.216 7.168 33.792 15.36t51.2 15.36 50.176 12.288 30.72 7.168q15.36 3.072 27.136 7.68t11.776 12.8l0 59.392q-11.264 9.216-21.504 20.48-9.216 9.216-18.432 22.016t-16.384 27.136q-14.336 27.648-18.432 50.688t-5.12 27.136-7.68 6.656-9.728 10.752q-8.192 17.408-7.68 36.864t2.56 55.296q3.072 35.84 11.776 68.608t38.4 60.416q15.36 13.312 40.96 22.016t52.224 12.8 50.688 4.096 36.352-3.072q13.312-4.096 21.504-8.704t12.8-8.704 7.68-7.68 6.144-5.632q5.12-4.096 13.312-2.56t28.672-2.56zM538.624 199.68l27.648-106.496 45.056 120.832-43.008 30.72zM464.896 246.784l-40.96-32.768 46.08-120.832 24.576 107.52zM829.44 647.168q14.336-2.048 23.04-14.336t9.728-29.696q0-5.12 1.024-16.896t1.024-24.064-1.024-23.04-3.072-12.8q-4.096-4.096-7.68-3.584t-3.584-3.584q0-2.048-0.512-12.8t-5.632-31.232q-2.048-10.24-6.144-18.432t-9.216-14.336q-5.12-7.168-12.288-13.312-1.024-8.192-1.024-15.36l0-23.552q1.024-7.168 4.096-10.24t12.288-5.12q4.096-1.024 19.456-6.144t33.28-11.776 33.28-12.288 21.504-8.704q12.288-6.144 16.896-12.8t6.656-17.92q1.024-5.12 3.072-19.456t4.096-30.72 4.096-29.696 2.048-17.408q1.024-8.192-2.56-13.824t-15.872-7.68q-10.24-2.048-26.624-5.12t-43.008-5.12q-2.048 12.288-6.144 23.552-3.072 10.24-7.168 21.504t-10.24 19.456q-11.264 15.36-23.552 24.576t-24.576 15.36-24.576 9.728-24.576 7.68q-52.224 18.432-83.968 25.6t-35.84 12.288q-2.048 3.072-2.56 7.168t-0.512 9.216 1.024 11.264q14.336 4.096 21.504 5.12t11.264 2.048q8.192 2.048 15.36 4.608t7.168 7.68l0 35.84-2.048 1.024-4.096 2.048q-2.048 1.024-4.096 5.12 6.144 13.312 12.288 31.744 5.12 16.384 10.752 39.936t9.728 56.32q3.072 25.6 4.096 46.08t1.024 35.84l0 31.744q12.288 2.048 26.112 2.048t22.016-2.048q17.408-5.12 20.992-10.24t7.68-8.192q4.096-2.048 8.704-1.536t16.896-1.536zM777.216 319.488l7.168-27.648 18.432-6.144 14.336 36.864-21.504 18.432zM723.968 337.92l-17.408-17.408 1.024-4.096 31.744-9.216 4.096 11.264zM269.312 669.696q-16.384 2.048-32.768 1.024-14.336-1.024-31.232-5.12t-31.232-14.336q-12.288-8.192-19.456-19.456t-10.752-23.04-4.608-22.016-1.024-16.384q-1.024-13.312-2.048-24.064t1.024-18.944 3.072-11.264 4.096-5.12 5.12-2.56 4.096-13.824q1.024-13.312 6.656-26.112t11.776-20.992q3.072-5.12 7.68-9.728t8.704-9.728 10.24-10.24l0-12.288 0-17.408q-1.024-6.144-4.608-10.24t-13.824-6.144q-5.12-1.024-16.896-4.096t-25.6-6.656-27.648-7.68-22.016-7.168q-29.696-14.336-35.84-49.152-4.096-16.384-9.216-40.96t-7.168-34.816 0.512-21.504 16.896-14.336q7.168-2.048 17.92-3.072t20.992-3.072q11.264-2.048 23.552-3.072 2.048 12.288 6.144 24.576 3.072 11.264 8.704 22.528t13.824 21.504q8.192 9.216 19.968 17.92t23.04 16.896q12.288 9.216 26.624 17.408l-10.24 25.6 22.528 17.408 23.552-26.624 12.288 3.072q2.048 0 6.144 2.048 2.048 1.024 4.096 1.024l19.456 22.528 17.408-14.336q5.12 1.024 9.216 2.048t9.216 2.048l10.24 2.048q11.264 2.048 18.944 4.096t8.704 10.24q0 4.096 0.512 6.656t0.512 4.608l0 3.072q-9.216 3.072-17.408 6.144l-14.336 4.096q-7.168 2.048-11.264 4.096-8.192 3.072-9.216 8.704t-1.024 14.848l0 10.24q0 5.12 1.024 10.24 0 5.12 1.024 12.288-8.192 12.288-16.384 26.624-7.168 12.288-13.824 28.16t-10.752 33.28q-5.12 23.552-7.168 50.176t-1.024 48.128q0 25.6 3.072 50.176z"  horiz-adv-x="1024" />

    
    <glyph glyph-name="square" unicode="&#58882;" d="M832-32 192-32c-52.928 0-96 43.072-96 96L96 704c0 52.928 43.072 96 96 96l640 0c52.928 0 96-43.072 96-96l0-640C928 11.072 884.928-32 832-32zM192 736C174.368 736 160 721.632 160 704l0-640c0-17.664 14.368-32 32-32l640 0c17.664 0 32 14.336 32 32L864 704c0 17.632-14.336 32-32 32L192 736z"  horiz-adv-x="1024" />

    
    <glyph glyph-name="squarecheck" unicode="&#58883;" d="M726.976 502.816c-12.544 12.448-32.832 12.32-45.248-0.256l-233.28-235.808-103.264 106.112c-12.352 12.704-32.608 12.928-45.248 0.64-12.672-12.32-12.96-32.608-0.64-45.248l126.016-129.504c0.064-0.096 0.192-0.096 0.256-0.192 0.064-0.064 0.096-0.192 0.16-0.256 2.016-1.984 4.512-3.2 6.88-4.544 1.248-0.672 2.24-1.792 3.52-2.304 3.872-1.6 8-2.4 12.096-2.4 4.064 0 8.128 0.8 11.968 2.336 1.248 0.512 2.208 1.536 3.392 2.176 2.4 1.344 4.896 2.528 6.944 4.544 0.064 0.064 0.096 0.192 0.192 0.256 0.064 0.096 0.16 0.128 0.256 0.192l256.224 259.008C739.648 470.112 739.52 490.368 726.976 502.816zM832-32 192-32c-52.928 0-96 43.072-96 96L96 704c0 52.928 43.072 96 96 96l640 0c52.928 0 96-43.072 96-96l0-640C928 11.072 884.928-32 832-32zM192 736C174.368 736 160 721.632 160 704l0-640c0-17.664 14.368-32 32-32l640 0c17.664 0 32 14.336 32 32L864 704c0 17.632-14.336 32-32 32L192 736z"  horiz-adv-x="1024" />

    
    <glyph glyph-name="guanzhudianpu" unicode="&#58891;" d="M752.630964 360.068961c0.065492 0 0.154519-0.041956 0.222057-0.041956 11.381212 0 20.614503 9.229199 20.614503 20.591991 0 11.360745-9.234315 20.590967-20.593014 20.614503L530.656407 401.2335 530.656407 623.33904c0 0.042979 0.024559 0.064468 0.024559 0.109494 0 11.384281-9.233292 20.615527-20.615527 20.615527-11.359722 0-20.593014-9.231245-20.593014-20.615527l0-222.214011L267.258415 401.234523c-11.362792 0-20.591991-9.230222-20.591991-20.615527 0-11.360745 9.229199-20.591991 20.591991-20.591991 0.089028 0 0.13303 0.041956 0.222057 0.041956l221.994 0 0-222.233454c0-11.363815 9.233292-20.593014 20.593014-20.593014 11.382235 0 20.615527 9.229199 20.615527 20.593014 0 0.044002-0.024559 0.065492-0.024559 0.109494L530.658454 360.068961 752.630964 360.068961zM941.58343 382.372943c0 238.325967-193.192024 431.514921-431.515944 431.514921-238.324944 0-431.514921-193.189977-431.514921-431.514921 0-238.325967 193.188954-431.515944 431.514921-431.515944 97.838306 0 187.422623 33.265638 259.806187 88.140433 2.971681 3.373841 4.924149 7.655354 4.924149 12.493545 0 10.562567-8.56405 19.128663-19.127639 19.128663-5.478781 0-10.359952-2.153036-13.84431-5.858428l-0.246617 0c-64.773236-47.665603-144.502092-76.18003-231.090169-76.18003-215.802998 0-390.773008 174.971034-390.773008 390.771985 0 215.826534 174.97001 390.775055 390.773008 390.775055 215.82551 0 390.774031-174.948521 390.774031-390.775055 0-65.925479-15.467273-127.971603-44.314275-182.449355l0-0.330528c-0.531096-1.797949-1.107217-3.595898-1.107217-5.548366 0-10.540054 8.563026-19.128663 19.128663-19.128663 8.232498 0 15.110139 5.282307 17.796318 12.583596l0-0.135076C923.497517 243.705744 941.58343 310.919565 941.58343 382.372943z"  horiz-adv-x="1024" />

    
    <glyph glyph-name="wo" unicode="&#58892;" d="M808.854477 520.366807c0 163.997098-134.543276 296.918433-300.536844 296.918433-165.995615 0-300.536844-132.921335-300.536844-296.918433 0-94.696756 45.01831-178.827875 114.873284-233.189993-125.261888-63.085804-213.430974-188.69357-223.198431-334.665129l44.950771 0c10.544147 136.692219 99.246375 257.717619 223.043912 305.83143 39.333844-18.691711 94.296643-34.896788 140.867308-34.896788 46.571688 0 90.499154 10.767228 129.836067 29.455869l30.833239 17.869996 24.970718 16.403598C763.838214 341.538933 808.854477 425.670052 808.854477 520.366807zM508.316609 271.815965c-138.957819 0-251.590062 111.277386-251.590062 248.570285 0 137.251967 112.632243 248.550843 251.590062 248.550843 138.957819 0 251.613598-111.298875 251.613598-248.550843C759.930207 383.095397 652.85554 271.815965 508.316609 271.815965zM762.570337 243.559411l-0.221034-0.312108c-4.907777 4.683672-11.453866 7.633864-18.779715 7.633864-15.117302 0-27.347858-5.746888-27.347858-20.863167 0-10.431583 6.037507-19.178805 14.603603-23.786753l-0.177032-0.268106c82.176604-58.731636 123.620505-147.655921 131.789559-253.452479l54.738695 0C909.319609 70.029192 850.562391 174.668391 762.570337 243.559411z"  horiz-adv-x="1024" />

    
    <glyph glyph-name="youhuiquan" unicode="&#58893;" d="M919.48718 374.802524c11.860119 0 21.48022 9.642614 21.48022 21.503756L940.9674 634.891144c0 45.133943-36.555567 81.691557-81.691557 81.691557L160.077324 716.582701c-45.134966 0-81.691557-36.557614-81.691557-81.691557l0-494.90567c0-45.133943 36.556591-81.670068 81.691557-81.670068l699.198519 0c45.13599 0 81.691557 36.535101 81.691557 81.670068L940.9674 230.755804c-0.065492 11.816117-9.643638 21.393239-21.48022 21.393239-11.838629 0-21.459754-9.577123-21.50478-21.393239l0-0.044002c0-0.046049 0-0.046049 0-0.089028l0-0.046049 0-86.290295c0-23.765263-19.286252-43.007513-43.004443-43.007513L421.001985 101.278917c-0.022513 0-0.022513 0-0.045025 0L164.377256 101.278917c-23.720238 0-43.007513 19.243273-43.007513 43.007513L121.369743 630.590188c0 23.741727 19.287275 43.007513 43.007513 43.007513l690.600701 0c23.719214 0 43.004443-19.265786 43.004443-43.007513L897.9824 396.30628C897.9824 384.445138 907.603525 374.802524 919.48718 374.802524zM284.997428 561.289845c0 6.361895-5.16565 11.527544-11.550057 11.527544l-57.749262 0c-6.385431 0-11.55108-5.16565-11.55108-11.527544l0-57.681724c-0.021489-6.363941 5.164626-11.506055 11.55108-11.506055l57.749262 0c6.384407 0 11.550057 5.142114 11.550057 11.506055L284.997428 561.289845zM284.997428 413.735232c0 6.361895-5.16565 11.528568-11.550057 11.528568l-57.749262 0c-6.385431 0-11.55108-5.166673-11.55108-11.528568l0-57.68377c-0.021489-6.361895 5.164626-11.505032 11.55108-11.505032l57.749262 0c6.384407 0 11.550057 5.143137 11.550057 11.505032L284.997428 413.735232zM273.447371 277.710208l-57.749262 0c-6.385431 0-11.55108-5.166673-11.55108-11.528568l0-57.684794c-0.021489-6.360871 5.164626-11.491729 11.55108-11.491729l57.749262 0c6.384407 0 11.550057 5.131881 11.550057 11.491729l0 57.684794C284.997428 272.543535 279.831778 277.710208 273.447371 277.710208zM793.458835 476.340081 347.003644 476.340081c-11.882632 0-21.503756-9.620102-21.503756-21.503756 0-11.860119 9.620102-21.481244 21.503756-21.481244l446.455191 0c11.859096 0 21.481244 9.621125 21.481244 21.481244C814.940079 466.718957 805.31793 476.340081 793.458835 476.340081zM793.458835 331.178981 347.003644 331.178981c-11.882632 0-21.503756-9.620102-21.503756-21.502733 0-11.860119 9.620102-21.482267 21.503756-21.482267l446.455191 0c11.859096 0 21.481244 9.622148 21.481244 21.482267C814.940079 321.557856 805.31793 331.178981 793.458835 331.178981z"  horiz-adv-x="1024" />

    
    <glyph glyph-name="xinxi" unicode="&#58894;" d="M950.381817 386.240017c0 242.11834-196.265012 438.384375-438.382329 438.384375-242.11834 0-438.382329-196.266036-438.382329-438.384375 0-242.12755 196.263989-438.392562 438.382329-438.392562 99.394754 0 190.403514 33.816177 263.941368 89.542362 3.0208 3.427052 5.004991 7.79964 5.004991 12.716626 0 10.729365-8.701173 19.431561-19.431561 19.431561-5.570879 0-10.529821-2.209318-14.068414-5.950526l-0.248663 0c-65.804728-48.423873-146.803507-77.415161-234.767931-77.415161-219.23619 0-396.992663 177.780009-396.992663 397.002896 0 219.260749 177.756473 396.99471 396.992663 396.99471 219.258703 0 396.99164-177.73396 396.99164-396.99471 0-66.952878-15.712867-129.98547-45.01831-185.352475l0-0.326435c-0.541329-1.849114-1.127683-3.65218-1.127683-5.636371 0-10.731412 8.701173-19.431561 19.431561-19.431561 8.363482 0 15.35164 5.363148 18.080797 12.759605l0-0.135076C932.008354 245.389082 950.381817 313.649745 950.381817 386.240017zM539.389302 498.949009c0 12.668531-10.32516 22.981411-23.038716 22.981411-12.670577 0-22.973224-10.31288-22.973224-22.981411l0-328.054571c0-12.670577 10.302647-22.994714 22.995737-22.994714 12.713556 0 23.016203 10.324136 23.016203 22.994714 0 0.044002-0.044002 0.091074-0.044002 0.134053L539.3453 498.790396C539.3453 498.835422 539.389302 498.901936 539.389302 498.949009zM516.395612 619.56918c-12.895705 0-23.333428-10.392698-23.333428-23.299659 0-12.875239 10.437723-23.310915 23.333428-23.310915 12.849656 0 23.309892 10.4367 23.309892 23.310915C539.705504 609.176482 529.244244 619.56918 516.395612 619.56918z"  horiz-adv-x="1024" />

    
    <glyph glyph-name="saoyisao" unicode="&#59044;" d="M107.504968 492.012152c23.304775 0 42.195008 18.909675 42.195008 42.214451L149.699975 661.175923l126.96774 0c23.305799 0 42.215474 18.909675 42.215474 42.215474 0 23.304775-18.909675 42.215474-42.215474 42.215474L107.504968 745.606871c-19.004843 0-34.864042-12.620435-40.169885-29.898961-1.212618-3.90289-2.045589-7.996115-2.045589-12.316513l0 0 0-169.164794C65.289494 510.920804 84.179726 492.012152 107.504968 492.012152zM747.098971 661.175923l126.96774 0 0-126.94932c0-23.304775 18.890232-42.214451 42.195008-42.214451 23.324218 0 42.215474 18.909675 42.215474 42.214451L958.477192 703.391397l0 0c0 4.320399-0.830925 8.4126-2.045589 12.316513-5.303796 17.279548-21.164019 29.898961-40.169885 29.898961L747.098971 745.606871c-23.305799 0-42.213427-18.909675-42.213427-42.215474C704.885544 680.085598 723.793172 661.175923 747.098971 661.175923zM276.667715-63.117135 149.699975-63.117135 149.699975 63.833209c0 23.304775-18.890232 42.215474-42.195008 42.215474-23.324218 0-42.215474-18.909675-42.215474-42.215474l0-169.163771 0 0c0-4.320399 0.832971-8.413624 2.045589-12.31549 5.305843-17.281595 21.165042-29.899984 40.169885-29.899984l169.163771 0c23.305799 0 42.215474 18.909675 42.215474 42.215474S299.974537-63.117135 276.667715-63.117135zM916.262742 106.048683c-23.304775 0-42.195008-18.909675-42.195008-42.215474l0-126.950344L747.098971-63.117135c-23.305799 0-42.213427-18.907629-42.213427-42.213427s18.907629-42.215474 42.213427-42.215474l169.163771 0c19.005866 0 34.866089 12.618389 40.169885 29.899984 1.214664 3.901867 2.045589 7.995091 2.045589 12.31549l0 0L958.478216 63.833209C958.477192 87.137984 939.585937 106.048683 916.262742 106.048683zM105.761254 257.269803l812.265668 0c23.057135 0 41.760103 18.700921 41.760103 41.760103 0 23.060205-18.701944 41.761126-41.760103 41.761126L105.761254 340.791032c-23.078625 0-41.761126-18.700921-41.761126-41.761126C64.000128 275.970724 82.682629 257.269803 105.761254 257.269803z"  horiz-adv-x="1024" />

    
    <glyph glyph-name="enclosure" unicode="&#58904;" d="M940.324252 526.485155l-502.494509-502.504742c-35.08917-35.08917-89.621157-55.759955-146.588613-55.759955-1.524726 0-3.039219 0.010233-4.563946 0.040932-64.908312 1.258667-125.211746 28.499078-169.817664 76.6968-44.145429 47.716768-69.820182 108.255563-72.296583 170.47258-2.353604 59.269895 16.751522 113.720018 52.423977 149.402705l401.750013 401.729547c8.002254 7.992021 20.957311 7.992021 28.949332 0 7.992021-7.992021 7.992021-20.957311 0-28.949332l-401.750013-401.729547c-27.629267-27.619034-42.37511-70.935586-40.47176-118.826316 2.087545-52.485375 23.904433-103.732549 61.439304-144.296407 36.972053-39.960107 86.888929-62.534242 140.561339-63.578014 47.716768-0.941442 93.100398 15.431457 121.41528 43.74634l502.504742 502.494509c23.515576 23.52581 38.240953 62.575174 37.524638 99.496062-0.460488 23.39278-7.245008 57.049321-36.941354 84.504626-37.023218 34.219359-75.376735 39.427988-101.031021 37.770232-31.875988-2.056845-62.534242-15.615653-84.126003-37.207413l-393.174708-393.164474-0.521886-0.491187c-9.874905-11.143805-15.277962-25.347295-15.277962-40.359196 0.010233-16.280802 6.344498-31.579229 17.856693-43.091424s26.820855-17.856693 43.091424-17.856693c16.280802 0 31.579229 6.344498 43.091424 17.856693l308.199361 308.199361c7.992021 7.992021 20.947078 7.992021 28.949332 0 7.981788-7.992021 7.992021-20.957311 0-28.949332l-308.199361-308.189128c-19.238157-19.24839-44.820811-29.849842-72.040756-29.849842-27.209712 0-52.792367 10.601452-72.030523 29.849842-19.238157 19.227923-29.839609 44.810578-29.849842 72.02029 0 23.269983 7.746428 45.342698 22.031782 63.291488 0.020466 0.020466 0.030699 0.051165 0.051165 0.071631 4.41045 5.976108 13.558807 14.285355 13.558807 14.285355l385.325949 385.315716c28.519544 28.529777 68.766177 46.437635 110.424972 49.118698 33.656541 2.169409 83.778078-4.492314 131.453914-48.566112 31.875988-29.471219 49.200562-68.807109 50.080605-113.76095C990.773248 607.490074 971.811384 557.962054 940.324252 526.485155z"  horiz-adv-x="1024" />

    
    <glyph glyph-name="more" unicode="&#58907;" d="M278.325983 408.391527M191.401238 283.301554c-64.608483 0-117.17163 52.563146-117.17163 117.17163s52.563146 117.17163 117.17163 117.17163 117.17163-52.563146 117.17163-117.17163S256.009721 283.301554 191.401238 283.301554zM191.401238 476.712565c-42.039465 0-76.239382-34.20094-76.239382-76.239382s34.20094-76.239382 76.239382-76.239382 76.239382 34.20094 76.239382 76.239382S233.43968 476.712565 191.401238 476.712565zM527.134699 283.301554c-64.608483 0-117.17163 52.563146-117.17163 117.17163s52.563146 117.17163 117.17163 117.17163c64.609507 0 117.172653-52.563146 117.172653-117.17163C644.307352 335.8647 591.744205 283.301554 527.134699 283.301554zM527.134699 476.712565c-42.038442 0-76.239382-34.20094-76.239382-76.239382s34.20094-76.239382 76.239382-76.239382c42.039465 0 76.240405 34.20094 76.240405 76.239382C603.375104 442.511625 569.174164 476.712565 527.134699 476.712565zM862.869183 283.301554c-64.609507 0-117.172653 52.563146-117.172653 117.17163s52.563146 117.17163 117.172653 117.17163c64.608483 0 117.17163-52.563146 117.17163-117.17163 0-11.230786-1.591241-22.346961-4.727675-33.039487-3.182482-10.847046-14.557554-17.055444-25.400506-13.877055-10.846022 3.182482-17.058514 14.555507-13.877055 25.400506 2.039449 6.948249 3.072989 14.187117 3.072989 21.515013 0 42.039465-34.20094 76.239382-76.239382 76.239382-42.039465 0-76.240405-34.20094-76.240405-76.239382s34.20094-76.239382 76.240405-76.239382c11.721973 0 22.957875 2.582825 33.393551 7.676843 10.157337 4.959965 22.410406 0.744967 27.369348-9.413394s0.743944-22.411429-9.413394-27.369348C898.141524 287.279145 880.866069 283.301554 862.869183 283.301554z"  horiz-adv-x="1024" />

    
    <glyph glyph-name="back" unicode="&#58898;" d="M363.840919 423.021263C336.938714 398.641139 337.301807 358.513862 364.730379 334.513862L673.951902 63.94503C682.818816 56.186481 696.296418 57.084988 704.05497 65.951902 711.813519 74.818816 710.915012 88.296418 702.048098 96.05497L392.826577 366.623802C384.59578 373.825747 384.502227 384.164713 392.492414 391.40582L702.325747 672.192277C711.056111 680.104171 711.719614 693.595384 703.807723 702.325748 695.895829 711.056111 682.404617 711.719614 673.674253 703.807722L363.840919 423.021263Z"  horiz-adv-x="1024" />

    
    <glyph glyph-name="less" unicode="&#58899;" d="M509.927514 508.840919C517.168621 516.831106 527.507586 516.737553 534.709532 508.506756L805.278364 199.285235C813.036915 190.418321 826.514517 189.519814 835.381431 197.278364 844.248346 205.036915 845.146852 218.514517 837.388303 227.381431L566.819471 536.602955C542.819471 564.031526 502.692194 564.39462 478.31207 537.492414L197.525612 227.659081C189.61372 218.928717 190.277222 205.437504 199.007586 197.525611 207.737949 189.613719 221.229163 190.277222 229.141056 199.007586L509.927514 508.840919Z"  horiz-adv-x="1024" />

    
    <glyph glyph-name="moreunfold" unicode="&#58900;" d="M478.31207 251.840919C502.692194 224.938714 542.819471 225.301807 566.819471 252.730379L837.388303 561.951902C845.146852 570.818816 844.248346 584.296418 835.381431 592.05497 826.514517 599.813519 813.036915 598.915012 805.278364 590.048098L534.709532 280.826577C527.507586 272.59578 517.168621 272.502227 509.927514 280.492414L229.141056 590.325747C221.229163 599.056111 207.737949 599.719614 199.007586 591.807723 190.277222 583.895829 189.61372 570.404617 197.525612 561.674253L478.31207 251.840919Z"  horiz-adv-x="1024" />

    
    <glyph glyph-name="more1" unicode="&#58901;" d="M642.174253 391.40582C650.164439 384.164713 650.070886 373.825747 641.84009 366.623802L332.618569 96.05497C323.751654 88.296418 322.853148 74.818816 330.611697 65.951902 338.370249 57.084988 351.847851 56.186481 360.714765 63.94503L669.936288 334.513862C697.36486 358.513862 697.727953 398.641139 670.825747 423.021263L360.992414 703.807722C352.26205 711.719614 338.770837 711.056111 330.858944 702.325748 322.947053 693.595384 323.610556 680.104171 332.340919 672.192277L642.174253 391.40582Z"  horiz-adv-x="1024" />

    
    <glyph glyph-name="yaochi" unicode="&#58908;" d="M243.704464-36.830581 138.489144-36.830581c-4.650927 0-9.110495 1.848091-12.399401 5.136997l-35.072797 35.071773c-3.288906 3.288906-5.136997 7.748475-5.136997 12.399401L85.879949 120.992911c0 4.650927 1.848091 9.110495 5.136997 12.399401l332.482417 332.481394c6.847965 6.847965 17.951861 6.847965 24.798802 0 6.847965-6.847965 6.847965-17.950837 0-24.798802l-327.34542-327.34542 0-90.687442 24.799826-24.799826 90.688465 0 42.336224 42.335201 0 45.344744c0 9.68457 7.850805 17.536398 17.536398 17.536398l45.335535 0 42.343387 42.336224 0 27.807323c0 9.68457 7.850805 17.536398 17.536398 17.536398l27.808346 0 24.798802 24.798802L454.136128 243.744629c0 9.68457 7.850805 17.536398 17.536398 17.536398l27.808346 0 21.132296 21.131273c6.847965 6.847965 17.952884 6.847965 24.798802 0 6.847965-6.847965 6.847965-17.950837 0-24.798802l-26.26827-26.26827c-3.288906-3.288906-7.749498-5.136997-12.400425-5.136997l-17.535375 0 0-17.536398c0-4.650927-1.848091-9.110495-5.135974-12.399401l-35.071773-35.071773c-3.288906-3.288906-7.749498-5.136997-12.400425-5.136997l-17.535375 0 0-17.535375c0-4.650927-1.848091-9.111518-5.136997-12.400425l-52.616358-52.608172c-3.287883-3.287883-7.748475-5.135974-12.398378-5.135974L313.849034 68.383716l0-35.071773c0-4.650927-1.848091-9.110495-5.136997-12.399401l-52.608172-52.607148C252.815983-34.98249 248.355391-36.830581 243.704464-36.830581zM682.103166 278.816402c-74.922387 0-145.374972 29.190833-198.379163 82.195024-53.004191 53.004191-82.196047 123.4578-82.196047 198.380186s29.190833 145.374972 82.196047 198.379163c53.004191 53.004191 123.4578 82.195024 198.379163 82.195024 74.92341 0 145.374972-29.190833 198.380186-82.195024 53.004191-53.004191 82.195024-123.456776 82.195024-198.379163s-29.190833-145.374972-82.195024-198.380186C827.478138 308.007235 757.025553 278.816402 682.103166 278.816402zM682.103166 804.894026c-135.37113 0-245.503437-110.132306-245.503437-245.502413s110.132306-245.503437 245.503437-245.503437S927.606603 424.020482 927.606603 559.391612 817.474296 804.894026 682.103166 804.894026zM806.105365 417.854039c-4.650927 0-9.110495 1.848091-12.399401 5.136997L545.701566 670.99441c-3.288906 3.287883-5.136997 7.748475-5.136997 12.399401s1.848091 9.111518 5.136997 12.399401c36.425607 36.425607 84.866876 56.485479 136.4016 56.485479s99.975992-20.059871 136.4016-56.485479c75.211982-75.213006 75.211982-197.59224 0.001023-272.803199C815.216883 419.701107 810.756291 417.854039 806.105365 417.854039zM583.577199 682.717406l221.843574-221.843574c49.533137 61.911048 45.629223 152.774499-11.715833 210.120578-29.800723 29.800723-69.435419 46.212508-111.602797 46.212508C645.840264 717.206918 611.451036 705.069483 583.577199 682.717406zM114.121154 8.944975c-4.488221 0-8.975419 1.711991-12.399401 5.136997-6.847965 6.847965-6.847965 17.950837 0 24.798802l292.355511 292.355511c6.846942 6.848988 17.951861 6.848988 24.798802 0 6.847965-6.847965 6.847965-17.950837 0-24.798802L126.520555 14.081972C123.097596 10.656967 118.609375 8.944975 114.121154 8.944975z"  horiz-adv-x="1024" />

    
    <glyph glyph-name="jifen" unicode="&#58896;" d="M509.091764 394.346649c241.775532 0 424.086741 78.085426 424.086741 181.63992 0 103.543238-182.311209 181.628664-424.086741 181.628664S84.993766 679.528783 84.993766 575.985546C84.993766 472.431052 267.316232 394.346649 509.091764 394.346649zM509.091764 711.779302c222.908836 0 378.251833-71.561849 378.251833-135.793756S732.001623 440.181557 509.091764 440.181557c-222.920092 0-378.26309 71.573105-378.26309 135.803989S286.171672 711.779302 509.091764 711.779302zM509.083577 201.938478c241.1155 0 422.937568 77.598332 422.937568 180.482561 0 27.169803-13.127995 52.453652-36.241412 75.131141-0.148379 0.153496-0.26606 0.320295-0.418532 0.468674-0.170892 0.166799-0.285502 0.345877-0.456395 0.51063l-0.11461-0.125867c-3.717671 3.40761-8.576329 5.608741-14.017248 5.608741-11.542894 0-20.898982-9.356089-20.898982-20.898982 0-6.110161 2.721994-11.481496 6.901177-15.302521l-0.082888-0.091074c13.948687-14.024411 21.809725-31.154557 21.809725-45.300742 0-64.785515-155.813718-136.966465-379.419426-136.966465-223.595474 0-379.410216 72.180949-379.410216 136.966465 0 16.139585 4.53734 29.952172 22.323425 45.670156 0.213871 0.204661 0.429789 0.381693 0.635473 0.594541 0.137123 0.118704 0.240477 0.233314 0.378623 0.354064l-0.084934 0.080841c3.416819 3.719718 5.623068 8.588609 5.623068 14.037714 0 11.542894-9.356089 20.898982-20.898982 20.898982-5.770424 0-10.993378-2.340301-14.773472-6.119371l-0.122797 0.118704c-23.408129-22.797215-36.594453-48.27754-36.594453-75.635631C86.158289 279.537833 267.979334 201.938478 509.083577 201.938478zM895.577119 266.470213c-0.168846 0.164752-0.282433 0.342808-0.453325 0.50756l-0.11461-0.124843c-3.717671 3.40761-8.577353 5.608741-14.018272 5.608741-11.540847 0-20.897959-9.356089-20.897959-20.898982 0-6.110161 2.720971-11.482519 6.901177-15.302521l-0.083911-0.091074c13.94971-14.024411 21.810748-31.154557 21.810748-45.300742 0-64.787562-155.813718-136.966465-379.419426-136.966465-223.595474 0-379.410216 72.179926-379.410216 136.966465 0 16.139585 4.53734 29.952172 22.321378 45.670156 0.213871 0.202615 0.429789 0.381693 0.635473 0.594541 0.137123 0.118704 0.240477 0.233314 0.378623 0.354064l-0.084934 0.080841c3.416819 3.719718 5.623068 8.588609 5.623068 14.037714 0 11.542894-9.356089 20.898982-20.897959 20.898982-5.770424 0-10.993378-2.340301-14.773472-6.119371l-0.122797 0.118704c-23.410176-22.797215-36.594453-48.278563-36.594453-75.635631 0-102.884228 181.821045-180.482561 422.926312-180.482561 241.114476 0 422.935522 77.598332 422.935522 180.482561 0 27.166733-13.125949 52.452629-36.235272 75.127048C895.851365 266.152988 895.730615 266.318764 895.577119 266.470213z"  horiz-adv-x="1024" />

    
    <glyph glyph-name="mubiaobazi" unicode="&#59004;" d="M361.412818 681.077046l9.857509-72.513524L583.217507 465.58411c30.732955-20.942985 38.635949-62.85863 17.723663-93.561909-20.958334-30.731932-62.85249-38.703487-93.585445-17.745153L295.415708 497.211435l-71.118757-17.35118-145.003512 98.78998c-8.9263 6.091742-13.34289 16.942881-11.17655 27.535123 2.152013 10.593266 10.471492 18.85237 21.071921 20.958334l78.854952 15.639189c14.359033 2.864234 23.783683 16.685008 21.177322 31.097252l-14.290471 79.089289c-1.916653 10.638291 2.728134 21.383006 11.797697 27.262924 9.070586 5.879917 20.777209 5.758144 29.709649-0.348947L361.412818 681.077046zM216.735741 438.155411l12.986779 3.151783c-0.932232-9.971096-1.530866-20.063965-1.530866-30.277584 0-175.697581 142.927223-318.631968 318.639131-318.631968 175.683255 0 318.624804 142.934386 318.624804 318.631968 0 175.712931-142.942573 318.647317-318.624804 318.647317-53.395094 0-103.684454-13.366426-147.919934-36.657898l-1.417279 10.350742-62.056358 42.264593c61.23055 38.794561 133.561925 61.526285 211.393571 61.526285 218.766492 0 396.131039-177.334871 396.131039-396.131039S765.5983 14.883221 546.831808 14.883221c-218.796168 0-396.153552 177.350221-396.153552 396.146389 0 23.186072 2.394537 45.780673 6.221702 67.860551L216.735741 438.155411zM546.831808 557.448354c-9.129938 0-18.025539-0.969071-26.701129-2.545986l-79.2039 53.449329c31.520901 16.941857 67.573002 26.595728 105.905028 26.595728 123.651204 0 223.912699-100.229772 223.912699-223.918839 0-123.673717-100.261495-223.902466-223.912699-223.902466-123.672694 0-223.933165 100.228749-223.933165 223.902466 0 6.803963 0.431835 13.533224 1.030469 20.201088l80.672344-54.419424c15.487739-64.238047 73.28612-112.187105 142.229329-112.187105 80.727603 0 146.404418 65.663512 146.404418 146.405441C693.236226 491.785865 627.559411 557.448354 546.831808 557.448354z"  horiz-adv-x="1024" />

    
    <glyph glyph-name="tuikuan" unicode="&#58897;" d="M885.935528 680.093649c0 7.506974-1.37737 14.623046-3.327792 21.50478l3.101641 1.565658-5.799076 7.126304c-11.882632 28.786627-40.166815 49.070602-73.240071 49.070602L216.559221 759.360993c-15.095813 0-29.060873-4.449335-41.069371-11.772115l-1.039679 0.582261-1.706875-2.072195c-21.354354-14.202467-35.455513-38.438451-35.455513-66.005296l0-590.119195c0-43.774993 35.489282-79.261205 79.272461-79.261205l590.112032 0c43.776016 0 79.264275 35.487236 79.264275 79.261205l0 66.010413-0.01228 0c-0.056282 11.470239-9.361205 20.756743-20.857027 20.756743-11.478426 0-20.787442-9.286504-20.844747-20.756743l-0.007163 0 0-0.052189c0-0.017396-0.00307-0.028653-0.00307-0.052189 0-0.020466 0.00307-0.029676 0.00307-0.054235l0-61.668525c0-23.042809-18.682501-41.72224-41.7161-41.72224L425.613514 52.435489c-0.00307 0-0.004093 0.001023-0.007163 0.001023-0.021489 0-0.032746-0.001023-0.052189-0.001023l-32.220842 0c-0.017396 0-0.037862 0.001023-0.054235 0.001023-0.00307 0-0.004093-0.001023-0.007163-0.001023L220.735333 52.435489c-23.044856 0-41.718147 18.680455-41.718147 41.72224L179.017186 675.920606c0 6.382361 1.547239 12.359492 4.108574 17.767666l328.486406-179.393763 331.998393 167.622672c0.286526-1.973958 0.604774-3.942799 0.604774-5.996574l0-354.12432 0.007163 0c0-0.025583-0.00921-0.053212-0.00921-0.076748 0-11.522428 9.341762-20.869307 20.85498-20.869307 11.530614 0 20.869307 9.346879 20.869307 20.869307 0 0.022513-0.007163 0.051165-0.007163 0.076748l0.007163 0L885.937574 680.093649zM509.23298 561.121 229.096768 717.639776l573.401442 0c4.421706 0 8.600889-0.874927 12.602016-2.149966L509.23298 561.121zM639.395482 267.238716l0 0.189312c11.458983 0 20.748556 9.31004 20.748556 20.774139 0 11.461029-9.28855 20.74958-20.748556 20.74958l-95.9237 0.010233 93.364411 109.761869-0.12996 0.149403c8.580422 7.589862 9.332553 20.73116 1.741667 29.28907-7.622608 8.597819-20.739347 9.373485-29.306466 1.762133l-87.993077-102.386902L431.102528 454.405513c-8.570189 7.614421-21.686928 6.836709-29.305443-1.763157-7.591909-8.558933-6.838755-21.694091 1.741667-29.287023l-0.12996-0.146333 98.349959-113.25953 0-0.986467-98.844216 0.075725 0-0.086981c-11.461029 0-20.748556-9.309016-20.748556-20.770046 0-11.458983 9.287527-20.748556 20.748556-20.748556l0-0.107447 98.844216-0.075725 0-42.125423-98.856495 0.075725 0-0.085958c-11.45796 0-20.74958-9.329483-20.74958-20.770046 0-11.478426 9.29162-20.772093 20.74958-20.772093l0-0.082888 98.856495-0.075725 0-48.853661 0.097214 0c0-11.43647 9.299807-20.727067 20.760836-20.727067 11.461029 0 20.75879 9.290597 20.75879 20.727067l0.097214 0 0 48.853661 95.910397-0.010233 0 0.168846c11.461029 0 20.750603 9.335622 20.750603 20.775162 0 11.479449-9.290597 20.766976-20.750603 20.766976l-95.910397 0.010233 0 42.125423L639.395482 267.238716z"  horiz-adv-x="1024" />

    
    <glyph glyph-name="wode" unicode="&#59056;" d="M511.978 711.135c233.338 0 423.179-189.796 423.179-423.135 0-233.316-189.818-423.135-423.179-423.135-233.294 0-423.135 189.841-423.135 423.135 0 233.338 189.841 423.135 423.135 423.135M511.978 777.917c-270.559 0-489.917-219.336-489.917-489.917s219.359-489.917 489.917-489.917c270.603 0 489.962 219.359 489.962 489.917 0 270.581-219.359 489.917-489.962 489.917v0zM748.054 65.035c0-14.47-26.246-26.246-26.246-26.246h-419.662c0 0-26.223 11.709-26.223 26.246 0 107.965 72.57 198.834 171.52 226.905-39.736 22.528-66.605 65.135-66.605 114.087 0 72.437 58.746 131.161 131.183 131.161s131.139-58.724 131.139-131.161c0-48.952-26.869-91.559-66.605-114.087 98.95-28.071 171.498-118.94 171.498-226.905z"  horiz-adv-x="1024" />

    
    <glyph glyph-name="shouye" unicode="&#59003;" d="M512.013 660.929c0 0-222.546-192.11-346.905-296.151-7.313-6.611-12.844-16.27-12.844-27.629 0-19.886 16.081-35.966 35.966-35.966l71.961 0 0-251.82c0-19.888 16.08-35.966 35.966-35.966l107.927 0c19.886 0 35.965 16.108 35.965 35.966l0 143.893 143.893 0 0-143.892c0-19.86 16.08-35.966 35.966-35.966l107.927 0c19.886 0 35.965 16.079 35.965 35.966l0 251.82 71.962 0c19.886 0 35.965 16.08 35.965 35.966 0 11.359-5.531 21.019-13.788 27.629-123.493 104.041-345.984 296.15-345.984 296.15l0.053 0z"  horiz-adv-x="1024" />

    
    <glyph glyph-name="shouji" unicode="&#58903;" d="M512 11.946667c-40.96 0-75.093333 34.133333-75.093333 75.093333s34.133333 75.093333 75.093333 75.093333 75.093333-34.133333 75.093333-75.093333S552.96 11.946667 512 11.946667zM512 124.586667c-20.48 0-37.546667-17.066667-37.546667-37.546667s17.066667-37.546667 37.546667-37.546667c20.48 0 37.546667 17.066667 37.546667 37.546667S532.48 124.586667 512 124.586667zM679.253333-97.28c-3.413333 0-6.826667 0-10.24 3.413333-40.96 23.893333-109.226667 23.893333-109.226667 23.893333l0 0L276.48-69.973333c-54.613333 0-98.986667 44.373333-98.986667 98.986667L177.493333 756.053333c0 54.613333 44.373333 98.986667 98.986667 98.986667l471.04 0c54.613333 0 98.986667-44.373333 98.986667-98.986667l0-727.04c0-54.613333-44.373333-98.986667-98.986667-98.986667-10.24 0-17.066667 6.826667-17.066667 17.066667s6.826667 17.066667 17.066667 17.066667c34.133333 0 61.44 27.306667 61.44 61.44L808.96 756.053333c0 34.133333-27.306667 61.44-61.44 61.44L276.48 817.493333c-34.133333 0-61.44-27.306667-61.44-61.44l0-727.04c0-34.133333 27.306667-61.44 61.44-61.44l283.306667 0c3.413333 0 78.506667 0 126.293333-30.72 10.24-6.826667 10.24-17.066667 6.826667-23.893333C692.906667-93.866667 686.08-97.28 679.253333-97.28zM590.506667 745.813333l-153.6 0c-10.24 0-17.066667 6.826667-17.066667 17.066667s6.826667 17.066667 17.066667 17.066667l153.6 0c10.24 0 17.066667-6.826667 17.066667-17.066667C607.573333 756.053333 600.746667 745.813333 590.506667 745.813333z"  horiz-adv-x="1024" />

    
    <glyph glyph-name="jiaoyi" unicode="&#58885;" d="M523.383467 808.874667c-235.264 0-426.666667-191.402667-426.666667-426.666667 0-235.264 191.402667-426.666667 426.666667-426.666667 235.281067 0 426.666667 191.402667 426.666667 426.666667C950.050133 617.472 758.647467 808.874667 523.383467 808.874667zM523.383467-10.308267c-216.439467 0-392.533333 176.0768-392.533333 392.533333s176.093867 392.533333 392.533333 392.533333 392.533333-176.093867 392.533333-392.533333S739.822933-10.308267 523.383467-10.308267zM714.666667 416.341333c9.437867 0 17.066667 7.645867 17.066667 17.066667s-7.6288 17.066667-17.066667 17.066667l-106.888533 0 104.021333 104.0384c6.673067 6.673067 6.673067 17.4592 0 24.132267s-17.4592 6.673067-24.132267 0l-120.695467-120.712533c-2.133333-2.133333-3.328-4.744533-4.096-7.458133l-68.829867 0c-0.768 2.7136-1.962667 5.3248-4.096 7.458133l-120.712533 120.712533c-6.673067 6.673067-17.4592 6.673067-24.132267 0s-6.673067-17.4592 0-24.132267l104.0384-104.0384-109.9264 0c-9.4208 0-17.066667-7.645867-17.066667-17.066667s7.645867-17.066667 17.066667-17.066667l167.1168 0 0-102.4-167.1168 0c-9.4208 0-17.066667-7.6288-17.066667-17.066667s7.645867-17.066667 17.066667-17.066667l167.1168 0L506.333867 145.066667c0-9.437867 7.645867-17.066667 17.066667-17.066667s17.066667 7.6288 17.066667 17.066667l0 134.7584 174.2336 0c9.437867 0 17.066667 7.6288 17.066667 17.066667s-7.6288 17.066667-17.066667 17.066667L540.433067 313.9584l0 102.4L714.666667 416.3584z"  horiz-adv-x="1024" />

    
    <glyph glyph-name="mima" unicode="&#58880;" d="M809.541115 404.806885 257.137916 404.806885 257.137916 553.532161c0 128.86188 126.08872 233.704716 254.954693 233.704716 128.866996 0 233.70574-126.083603 233.70574-254.953669 0-11.740392 9.509585-21.240767 21.24486-21.240767 11.744485 0 21.246907 9.505491 21.246907 21.240767 0 152.306848-123.904984 297.448506-276.196483 297.448506-152.294568 0-297.443389-123.896798-297.443389-276.199553l0-148.725276c-46.874587 0-84.98558-38.110993-84.98558-84.984556l0-297.447483c0-46.870494 38.110993-84.977393 84.98558-84.977393l594.888825 0c46.87254 0 84.984556 38.1069 84.984556 84.977393L894.523625 319.822328C894.521578 366.699985 856.405469 404.806885 809.541115 404.806885L809.541115 404.806885 809.541115 404.806885zM852.031858 22.374846c0-23.425525-19.071358-42.487673-42.48972-42.487673L214.648197-20.112828c-23.423479 0-42.494837 19.062148-42.494837 42.487673L172.15336 319.822328c0 23.429619 19.071358 42.490743 42.494837 42.490743l594.888825 0c23.423479 0 42.497906-19.062148 42.497906-42.490743l0-297.447483L852.031858 22.374846 852.031858 22.374846zM512.092609 277.328515c-23.470551 0-42.48972-19.024286-42.48972-42.48665 0-15.72617 8.5487-29.448706 21.240767-36.792974l0-69.436442c0-11.739369 9.509585-63.739696 21.248953-63.739696 11.736299 0 21.245883 52.000328 21.245883 63.739696l0 69.436442c12.692067 7.344269 21.249977 21.066805 21.249977 36.792974C554.587446 258.30423 535.56316 277.328515 512.092609 277.328515L512.092609 277.328515 512.092609 277.328515zM512.092609 277.328515"  horiz-adv-x="1024" />

    
    <glyph glyph-name="anyue" unicode="&#58881;" d="M160 288l0-64 320 0 0 64L160 288zM160 128l0-64 320 0 0 64L160 128zM544 288l0-64 320 0 0 64L544 288zM544 128l0-64 320 0 0 64L544 128zM192 768c-105.92 0-192-86.08-192-192l0-512c0-105.952 86.08-192 192-192l640 0c105.952 0 192 86.048 192 192L1024 576c0 105.92-86.048 192-192 192l-96 0L736 896l-64 0 0-128L352 768 352 896 288 896l0-128L192 768zM192 704l96 0 0-64 64 0L352 704l320 0 0-64 64 0L736 704l96 0c70.72 0 128-57.28 128-128l0-128L64 448l0 128C64 646.72 121.28 704 192 704zM960 384l0-320c0-70.72-57.28-128-128-128L192-64c-70.72 0-128 57.28-128 128L64 384 960 384z"  horiz-adv-x="1024" />

    
    <glyph glyph-name="chaopan" unicode="&#58884;" d="M160 288l0-256 64 0 0 256L160 288zM480 288l0-256 64 0 0 256L480 288zM320 160l0-128 64 0 0 128L320 160zM640 224l0-192 64 0 0 192L640 224zM800 352l0-320 64 0L864 352 800 352zM192 448l89.6-89.6 44.8-44.8 46.048 46.08 106.88 106.88 44.8-44.8 44.8-44.8 46.048 46.08L768 576l96-96L864 736l-256 0 115.2-115.2-152.928-152.96-44.8 44.8-44.8 44.8-46.08-46.08-106.88-106.88-89.6 89.6L192 448zM192 896C86.08 896 0 809.92 0 704l0-640c0-105.952 86.08-192 192-192l640 0c105.952 0 192 86.048 192 192L1024 704c0 105.92-86.048 192-192 192L192 896zM192 832l640 0c70.72 0 128-57.28 128-128l0-640c0-70.72-57.28-128-128-128L192-64c-70.72 0-128 57.28-128 128L64 704C64 774.72 121.28 832 192 832z"  horiz-adv-x="1024" />

    
    <glyph glyph-name="jinggao" unicode="&#58886;" d="M480 640l0-384 64 0L544 640 480 640zM480 192l0-64 64 0 0 64L480 192zM0 384c0-282.88 229.12-512 512-512s512 229.12 512 512S794.88 896 512 896 0 666.88 0 384zM64 384C64 631.36 264.64 832 512 832c247.36 0 448-200.64 448-448 0-247.36-200.64-448-448-448C264.64-64 64 136.64 64 384z"  horiz-adv-x="1024" />

    
    <glyph glyph-name="antian" unicode="&#58887;" d="M170.666667 384c0-188.586667 152.746667-341.333333 341.333333-341.333333s341.333333 152.746667 341.333333 341.333333S700.586667 725.333333 512 725.333333 170.666667 572.586667 170.666667 384zM227.555556 384c0 157.013333 127.431111 284.444444 284.444444 284.444444 157.013333 0 284.444444-127.431111 284.444444-284.444444 0-157.013333-127.431111-284.444444-284.444444-284.444444C354.986667 99.555556 227.555556 226.986667 227.555556 384zM483.555556 896l0-113.777778 56.888889 0L540.444444 896 483.555556 896zM1024 412.444444l-113.777778 0 0-56.888889 113.777778 0L1024 412.444444zM910.222222 14.222222l-79.047111 79.047111-28.444444-28.444444L881.777778-14.222222 910.222222 14.222222zM113.777778 14.222222l28.444444-28.444444 79.075556 79.047111-28.444444 28.444444L113.777778 14.222222zM483.555556-14.222222l0-113.777778 56.888889 0 0 113.777778L483.555556-14.222222zM113.777778 412.444444 0 412.444444l0-56.888889 113.777778 0L113.777778 412.444444zM221.297778 703.146667 142.222222 782.222222 113.777778 753.777778l79.075556-79.075556L221.297778 703.146667zM802.730667 703.146667l28.444444-28.444444L910.222222 753.777778l-28.444444 28.444444L802.730667 703.146667z"  horiz-adv-x="1024" />

    
    <glyph glyph-name="caidan" unicode="&#58888;" d="M0 736l1024 0 0-64-1024 0 0 64ZM0 96l1024 0 0-64-1024 0 0 64ZM0 416l1024 0 0-64-1024 0 0 64Z"  horiz-adv-x="1024" />

    
    <glyph glyph-name="duanxinyanzheng" unicode="&#58889;" d="M224 640l0-64L160 576l0-64 64 0 0-64L160 448l0-64 64 0 0-64 64 0 0 64 64 0 0 64L288 448l0 64 64 0 0 64L288 576 288 640 224 640zM480 640l0-64-64 0 0-64 64 0 0-64-64 0 0-64 64 0 0-64 64 0 0 64 64 0 0 64-64 0 0 64 64 0 0 64-64 0L544 640 480 640zM736 640l0-64-64 0 0-64 64 0 0-64-64 0 0-64 64 0 0-64 64 0 0 64 64 0 0 64-64 0 0 64 64 0 0 64-64 0L800 640 736 640zM192 96l0-224 224 224 416 0c105.952 0 192 86.048 192 192L1024 704c0 105.92-86.048 192-192 192L192 896C86.08 896 0 809.92 0 704l0-416C0 182.048 86.08 96 192 96zM256 160 192 160c-70.72 0-128 57.28-128 128L64 704c0 70.72 57.28 128 128 128l640 0c70.72 0 128-57.28 128-128l0-416c0-70.72-57.28-128-128-128L384 160l-128-128L256 160z"  horiz-adv-x="1024" />

    
    <glyph glyph-name="fengbiqi" unicode="&#58890;" d="M0 384c0-282.88 229.12-512 512-512s512 229.12 512 512S794.88 896 512 896 0 666.88 0 384zM480 672l64 0 0-256 320 0 0-64L544 352l0-64-64 0 0 64-64 0 0 64 64 0L480 672z"  horiz-adv-x="1024" />

    
    <glyph glyph-name="guanbi" unicode="&#58895;" d="M856.954864-7.039843l-735.994934 735.994934 46.091606 46.091606 735.994934-735.994934-46.091606-46.091606ZM120.934102 39.041936l735.994934 735.994934 46.091606-46.091606-735.994934-735.994934-46.091606 46.091606Z"  horiz-adv-x="1024" />

    
    <glyph glyph-name="jifen1" unicode="&#58902;" d="M154.24 508.48C66.24 490.88 0 413.12 0 320l0-256c0-105.952 86.08-192 192-192l192 0 64 0 128 0 64 0 192 0c105.952 0 192 86.048 192 192l0 256c0 93.12-66.24 170.88-154.24 188.48C922.88 576 960 636.48 960 672c0 123.84-100.16 224-224 224s-224-100.16-224-224c0 123.84-100.16 224-224 224S64 795.84 64 672C64 636.48 101.12 576 154.24 508.48zM792.32 512 640 512l-64 0-128 0-64 0L231.36 512C172.8 580.16 128 641.92 128 672c0 88.32 71.68 160 160 160s160-71.68 160-160c0-24.32 64-64 64-64s64 39.68 64 64c0 88.32 71.68 160 160 160s160-71.68 160-160C896 641.92 851.2 580.16 792.32 512zM192 448l192 0 0-512L192-64c-70.72 0-128 57.28-128 128l0 256C64 390.72 121.28 448 192 448zM448 448l128 0 0-512-128 0L448 448zM640 448l192 0c70.72 0 128-57.28 128-128l0-256c0-70.72-57.28-128-128-128l-192 0L640 448z"  horiz-adv-x="1024" />

    
    <glyph glyph-name="jianyi" unicode="&#58905;" d="M192 896C86.08 896 0 809.92 0 704l0-640c0-105.952 86.08-192 192-192l512 0c105.952 0 192 86.048 192 192L896 416l-64-64 0-288c0-70.72-57.28-128-128-128L192-64c-70.72 0-128 57.28-128 128L64 704c0 70.72 57.28 128 128 128l416 0 64 64L192 896zM800 896 307.2 403.2l-89.6-268.8 44.8-44.8 268.8 89.6L1024 672 800 896zM800 806.4 934.4 672l-448-448-194.24-74.56-14.72 14.72L352 358.4 800 806.4z"  horiz-adv-x="1024" />

    
    <glyph glyph-name="jingji" unicode="&#58906;" d="M160 384c0-12.48 0.64-24.928 1.92-37.12L219.2 364.8C218.88 371.2 218.56 377.6 218.56 384c0 161.92 131.52 293.44 293.44 293.44 75.488 0 144.32-28.8 196.512-75.52l63.008 19.84C707.2 691.84 614.72 736 512 736 317.44 736 160 578.56 160 384zM803.84 412.8c0.96-9.28 1.6-18.88 1.6-28.8 0-161.952-131.488-293.44-293.44-293.44-75.52 0-144.32 28.512-196.48 75.488L252.16 146.24C316.8 76.16 409.28 32 512 32c194.56 0 352 157.44 352 352 0 16-0.928 31.68-3.2 47.04L803.84 412.8zM0 384c0-29.44 2.56-57.952 7.04-86.048l61.76 19.488C65.6 339.2 64 361.28 64 384 64 631.36 264.64 832 512 832c177.952 0 331.488-103.68 403.84-253.76L592 503.36 592 592l-64 0L528 416l64 16 416 96-12.8 25.28C925.44 752.96 735.36 896 512 896 229.12 896 0 666.88 0 384zM953.28 460.48C957.76 435.52 960 409.92 960 384c0-247.36-200.64-448-448-448-177.92 0-331.52 103.68-403.84 253.76l323.84 74.88 0-88.64 64 0 0 175.36-480-111.36 12.48-24.928C98.24 15.36 288.32-128 512-128c282.88 0 512 229.12 512 512 0 32.64-3.2 64.64-8.928 95.68L953.28 460.48z"  horiz-adv-x="1024" />

    
    <glyph glyph-name="kefu" unicode="&#58909;" d="M894.72 540.8C880 739.52 714.24 896 512 896 309.76 896 144 739.52 128.96 540.8 55.68 526.4 0 461.76 0 384l0-64c0-88.32 71.68-160 160-160l96 0 0 160 0 64 0 160L193.6 544c16 161.6 152.32 288 318.4 288 166.048 0 302.4-126.4 318.4-288L768 544l0-160 0-64 0-160 62.4 0c-29.12-131.2-146.24-229.44-286.4-229.44-22.08 0-43.52 2.56-64 7.04l0-59.84c20.8-3.808 42.24-5.76 64-5.76 173.44 0 317.44 125.44 346.56 290.24C894.048 182.4 896 202.88 896 224l-16 0-42.56 0L832 224l0 106.56 0 42.88L832 480l48 0c44.16 0 80-47.68 80-106.56l0-42.88c0-58.88-35.84-106.56-80-106.56L896 224c0-21.12-1.952-41.6-5.44-61.76C966.4 175.072 1024 240.64 1024 320l0 64C1024 461.76 968.32 526.4 894.72 540.8zM144 480 192 480l0-106.56 0-42.88L192 224 144 224C99.84 224 64 271.68 64 330.56l0 42.88C64 432.32 99.84 480 144 480z"  horiz-adv-x="1024" />

    
    <glyph glyph-name="licai" unicode="&#58910;" d="M0 640c0-52.48 31.68-101.44 85.76-141.76C32.32 432 0 347.84 0 256c0-212.16 171.84-384 384-384l256 0c212.16 0 384 171.84 384 384 0 91.84-32.32 176-85.76 242.24C992.32 538.56 1024 587.52 1024 640c0 141.44-229.12 256-512 256S0 781.44 0 640zM833.28 506.24C910.72 447.68 960 357.44 960 256c0-176.64-150.4-320-336-320l-224 0C214.4-64 64 79.36 64 256c0 101.12 49.6 191.68 126.72 250.24C112.32 540.8 64 587.84 64 640c0 105.92 200.64 192 448 192 247.36 0 448-86.08 448-192C960 587.84 911.68 540.8 833.28 506.24zM640 384 768 544 672 544 544 384 480 384 352 544 256 544 384 384 256 384 256 320 480 320 480 224 256 224 256 160 480 160 480 32 544 32 544 160 768 160 768 224 544 224 544 320 768 320 768 384Z"  horiz-adv-x="1024" />

    
    <glyph glyph-name="mima1" unicode="&#58911;" d="M384 256c0-41.952 20.48-79.36 51.52-102.72C423.68 146.88 416 138.56 416 128c0-53.12 42.88-96 96-96s96 42.88 96 96c0 10.56-7.68 18.88-19.84 25.28C619.52 176.64 640 214.048 640 256c0 70.72-57.28 128-128 128S384 326.72 384 256zM448 256c0 35.2 28.8 64 64 64 35.2 0 64-28.8 64-64 0-23.68-12.8-44.16-32-55.36L544 96l-64 0 0 104.64C460.8 211.84 448 232.32 448 256zM192 512c-105.92 0-192-86.08-192-192l0-256c0-105.952 86.08-192 192-192l640 0c105.952 0 192 86.048 192 192l0 256c0 105.92-86.048 192-192 192L832 704c0 105.92-86.048 192-192 192l-256 0C278.08 896 192 809.92 192 704L192 512zM768 512 256 512 256 704c0 70.72 57.28 128 128 128l256 0c70.72 0 128-57.28 128-128L768 512zM192 448l640 0c70.72 0 128-57.28 128-128l0-256c0-70.72-57.28-128-128-128L192-64c-70.72 0-128 57.28-128 128l0 256C64 390.72 121.28 448 192 448z"  horiz-adv-x="1024" />

    
    <glyph glyph-name="mianxi" unicode="&#58912;" d="M256 416l0-64 224 0 0-224 64 0 0 224 224 0 0 64-224 0L544 640l-64 0 0-224L256 416zM0 384c0-282.88 229.12-512 512-512s512 229.12 512 512S794.88 896 512 896 0 666.88 0 384zM64 384C64 631.36 264.64 832 512 832c247.36 0 448-200.64 448-448 0-247.36-200.64-448-448-448C264.64-64 64 136.64 64 384z"  horiz-adv-x="1024" />

    
    <glyph glyph-name="muji" unicode="&#58913;" d="M0 384c0-282.88 229.12-512 512-512s512 229.12 512 512S794.88 896 512 896 0 666.88 0 384zM640 480l128 0 0-64-224 0 0-96 224 0 0-64-224 0 0-128-64 0 0 128L256 256l0 64 224 0 0 96L256 416l0 64 128 0L256 640l96 0 128-160 64 0 128 160 96 0L640 480z"  horiz-adv-x="1024" />

    
    <glyph glyph-name="paixing" unicode="&#58914;" d="M480 256l0-256 64 0 0 256L480 256zM192 192l0-32L128 160l0-96 0-64 64 0 64 0 0 64L192 64l0 32 64 0 0 96 0 64L192 256 128 256l0-64L192 192zM832 192l0-32-64 0 0-64 64 0 0-32-64 0 0-64 128 0 0 32 0 32 0 32 0 32 0 32 0 32 0 64-64 0-64 0 0-64L832 192zM128 640c-70.72 0-128-57.28-128-128l0-512c0-70.72 57.28-128 128-128l128 0c38.08 0 72.64 16.64 96 43.488C375.36-111.36 409.92-128 448-128l128 0c38.048 0 72.64 16.64 96 43.488C695.36-111.36 729.952-128 768-128l128 0c70.72 0 128 57.28 128 128l0 256c0 70.72-57.28 128-128 128l-128 0c-23.36 0-45.12-6.08-64-16.96L704 768c0 70.72-57.28 128-128 128l-128 0c-70.72 0-128-57.28-128-128l0-144.96C301.12 633.92 279.36 640 256 640L128 640zM384 0 384 512 384 768c0 35.2 28.8 64 64 64l128 0c35.2 0 64-28.8 64-64l0-512 0-256c0-35.2-28.8-64-64-64l-128 0C412.8-64 384-35.2 384 0zM128 576l128 0c35.2 0 64-28.8 64-64l0-512c0-35.2-28.8-64-64-64L128-64c-35.2 0-64 28.8-64 64L64 512C64 547.2 92.8 576 128 576zM768 320l128 0c35.2 0 64-28.8 64-64l0-256c0-35.2-28.8-64-64-64l-128 0c-35.2 0-64 28.8-64 64l0 256C704 291.2 732.8 320 768 320z"  horiz-adv-x="1024" />

    
    <glyph glyph-name="shezhi" unicode="&#58915;" d="M352 384c0-88.32 71.68-160 160-160s160 71.68 160 160-71.68 160-160 160S352 472.32 352 384zM416 384c0 53.12 42.88 96 96 96s96-42.88 96-96-42.88-96-96-96S416 330.88 416 384zM352 896l0-128L256 864 32 640l96-96L0 544l0-320 128 0-96-96 224-224 96 96 0-128 320 0 0 128 96-96 224 224-96 96 128 0L1024 544l-128 0 96 96-224 224-96-96L672 896 352 896zM416 832l192 0 0-219.84 158.72 157.12 130.56-130.56L740.16 480 960 480l0-192-219.2 0 147.808-147.488L758.4 3.2 608 153.6 608-64l-192 0 0 216.64-139.52-141.12-136.96 136.992L280.64 288 64 288l0 192 217.6 0L131.2 630.4l137.28 130.24L416 612.8 416 832z"  horiz-adv-x="1024" />

    
    <glyph glyph-name="shouji1" unicode="&#58916;" d="M256 768l0-512 512 0L768 768 256 768zM320 704l384 0 0-384L320 320 320 704zM416 96c0-53.12 42.88-96 96-96s96 42.88 96 96-42.88 96-96 96S416 149.12 416 96zM480 96c0 17.6 14.4 32 32 32s32-14.4 32-32-14.4-32-32-32S480 78.4 480 96zM256 896C185.28 896 128 838.72 128 768l0-768c0-70.72 57.28-128 128-128l512 0c70.72 0 128 57.28 128 128L896 768c0 70.72-57.28 128-128 128L256 896zM288 832l448 0c53.12 0 96-42.88 96-96l0-704c0-53.12-42.88-96-96-96L288-64c-53.12 0-96 42.88-96 96L192 736C192 789.12 234.88 832 288 832z"  horiz-adv-x="1024" />

    
    <glyph glyph-name="wodecaopan" unicode="&#58917;" d="M192.024998 896C86.113272 896 0.039997 809.926724 0.039997 704.014999l0-447.965003c0-105.943723 86.073276-191.985001 191.985001-191.985001l306.536052 0c9.279275 23.358175 22.078275 44.7965 37.75705 63.995L192.024998 128.059995c-70.714475 0-127.990001 57.275525-127.990001 127.990001L64.034997 704.014999c0 70.714475 57.275525 127.990001 127.990001 127.990001l639.950004 0c70.714475 0 127.990001-57.275525 127.990001-127.990001l0-447.965003c0-40.924803-19.1985-77.43395-49.27615-100.792126 15.678775-14.686853 29.4377-31.325553 40.9568-49.244153C995.802203 141.17897 1023.960003 195.254746 1023.960003 256.049996L1023.960003 704.014999c0 105.911726-86.041278 191.985001-191.985001 191.985001L192.024998 896zM160.027498 352.042497l0-159.987501 63.995 0 0 159.987501L160.027498 352.042497zM416.007499 384.039997l0-191.985001 63.995 0 0 191.985001L416.007499 384.039997zM288.017499 288.047496l0-95.992501 63.995 0 0 95.992501L288.017499 288.047496zM192.024998 512.029998l89.593001-89.593001 44.7965-44.7965 46.0764 46.0764 106.871651 106.871651 44.7965-44.7965 44.764503-44.7965 46.0764 46.0764L767.980002 640.019998l63.995-63.995L831.975002 768.009999l-191.985001 0 83.193501-83.193501-152.916053-152.948051-44.7965 44.7965-44.7965 44.7965-46.0764-46.0764-106.871651-106.871651-89.593001 89.593001L192.024998 512.029998zM607.992501 251.890321c0-47.324303 23.998125-88.665073 60.1553-112.343223C595.481478 111.421295 543.9975 39.138942 543.9975-45.686431c0-109.751426 383.970002-109.751426 383.970002 0 0 84.793376-51.483978 157.107726-123.830326 185.233529C839.974377 163.257246 863.972502 204.566018 863.972502 251.890321c0 72.9543-57.275525 132.149676-127.990001 132.149676S607.992501 324.844622 607.992501 251.890321zM671.987501 251.890321c0 36.47715 28.79775 65.91485 63.995 65.91485s63.995-29.4377 63.995-65.91485c0-24.670073-12.799-45.788423-31.9975-57.275525l0-95.672526c55.355675-14.71885 95.992501-66.5548 95.992501-128.309976 0-72.9543-255.980002-72.9543-255.980002 0 0 61.755175 40.636825 113.591126 95.992501 128.309976l0 95.672526C684.786501 206.101898 671.987501 227.252246 671.987501 251.890321z"  horiz-adv-x="1024" />

    
    <glyph glyph-name="xianjin" unicode="&#58918;" d="M640 480l128 160-96 0-128-160-64 0-128 160L256 640l128-160L256 480l0-64 224 0 0-96L256 320l0-64 224 0 0-128 64 0 0 128 224 0 0 64-224 0 0 96 224 0 0 64L640 480zM0 384c0-282.88 229.12-512 512-512s512 229.12 512 512S794.88 896 512 896 0 666.88 0 384zM64 384C64 631.36 264.64 832 512 832c247.36 0 448-200.64 448-448 0-247.36-200.64-448-448-448C264.64-64 64 136.64 64 384z"  horiz-adv-x="1024" />

    
    <glyph glyph-name="xinxi1" unicode="&#58919;" d="M192 896C86.08 896 0 809.92 0 704l0-640c0-105.952 86.08-192 192-192l640 0c105.952 0 192 86.048 192 192L1024 704c0 105.92-86.048 192-192 192L192 896zM192 832l640 0c70.72 0 128-57.28 128-128l0-64L512 192 64 640 64 704C64 774.72 121.28 832 192 832zM960 544l0-480c0-70.72-57.28-128-128-128L192-64c-70.72 0-128 57.28-128 128L64 544l448-448L960 544z"  horiz-adv-x="1024" />

    
    <glyph glyph-name="yonghu" unicode="&#58920;" d="M220.096 610.976c0-75.712 29.76-144.704 78.72-195.712-160.32-62.688-270.72-200.736-270.72-398.656 0-179.264 949.76-205.888 960 0 9.952 198.24-105.632 336.928-270.048 399.328 48.32 50.976 78.048 119.36 78.048 195.072 0 157.376-128.992 284.992-288 284.992C349.088 896 220.096 768.384 220.096 610.976zM284.096 610.976c0 122.56 100.16 221.664 224 221.664 123.84 0 224-99.136 224-221.664 0-88.672-52.8-165.312-128.992-200.768 184-42.432 320.992-174.176 320.992-369.248 0-150.432-832-142.496-832 0 0 195.072 136.96 326.784 320.96 369.248C336.896 445.664 284.096 522.304 284.096 610.976z"  horiz-adv-x="1024" />

    
    <glyph glyph-name="yonghuyilan" unicode="&#58921;" d="M0 367.488C0 93.984 221.984-128 495.488-128c273.504 0 495.488 222.016 495.488 495.488L495.488 367.488 495.488 862.976C221.984 862.976 0 640.992 0 367.488zM66.048 367.488c0 214.688 157.568 392.416 363.36 424.448L429.408 301.44l490.528 0c-32.032-205.824-209.76-363.36-424.448-363.36C258.304-61.952 66.048 130.304 66.048 367.488zM1024 433.536C1024 688.896 816.864 896 561.568 896l0-462.464L1024 433.536zM924.896 499.616l-297.28 0L627.616 796.896C791.808 796.896 924.896 663.808 924.896 499.616z"  horiz-adv-x="1024" />

    
    <glyph glyph-name="yuqishouyi" unicode="&#58922;" d="M352 544l96 0 48-96 32 0 48 96 96 0-48-96L672 448l0-64-128 0 0-64 128 0 0-64-128 0 0-64-64 0 0 64-128 0 0 64 128 0 0 64-128 0 0 64 48 0L352 544zM263.04 314.24c0-138.56 111.36-179.2 248.96-179.2s248.928 40.64 248.928 179.2c0 43.52-11.2 145.28-30.368 166.4 19.2 35.84 30.368 34.56 30.368 48.32 0 138.56-497.888 138.56-497.888 0 0-3.52 11.2-12.48 30.4-48.32C274.24 459.52 263.04 357.76 263.04 314.24zM0 384c0-282.88 229.12-512 512-512s512 229.12 512 512S794.88 896 512 896 0 666.88 0 384zM192 294.048c0 56 14.08 187.232 39.04 214.432C206.08 554.24 192 514.56 192 570.56c0 177.92 640 177.92 640 0 0-56-14.048-16.32-39.072-62.08C817.952 481.28 832 350.048 832 294.048 832 116.16 688.64 64 512 64 335.36 64 192 116.16 192 294.048z"  horiz-adv-x="1024" />

    
    <glyph glyph-name="zhengquan" unicode="&#58923;" d="M608 544l80-80-150.4-150.4-128 128-179.2-179.2L275.2 211.2l134.4 134.4 128-128L736 416l64-64 0 192L608 544zM0 384c0-282.88 229.12-512 512-512s512 229.12 512 512S794.88 896 512 896 0 666.88 0 384zM64 384C64 631.36 264.64 832 512 832c247.36 0 448-200.64 448-448 0-247.36-200.64-448-448-448C264.64-64 64 136.64 64 384z"  horiz-adv-x="1024" />

    
    <glyph glyph-name="zhifumima" unicode="&#58924;" d="M170.666667 244.363636l0-62.060606 62.060606 0 0-62.060606L170.666667 120.242424l0-62.060606 62.060606 0 0-62.060606 62.060606 0 0 62.060606 62.060606 0 0 62.060606L294.787879 120.242424l0 62.060606 62.060606 0 0 62.060606L294.787879 244.363636l0 62.060606L232.727273 306.424242l0-62.060606L170.666667 244.363636zM418.909091 244.363636l0-62.060606 62.060606 0 0-62.060606-62.060606 0 0-62.060606 62.060606 0 0-62.060606 62.060606 0 0 62.060606 62.060606 0 0 62.060606-62.060606 0 0 62.060606 62.060606 0 0 62.060606-62.060606 0 0 62.060606-62.060606 0 0-62.060606L418.909091 244.363636zM667.151515 244.363636l0-62.060606 62.060606 0 0-62.060606-62.060606 0 0-62.060606 62.060606 0 0-62.060606 62.060606 0 0 62.060606 62.060606 0 0 62.060606-62.060606 0 0 62.060606 62.060606 0 0 62.060606-62.060606 0 0 62.060606-62.060606 0 0-62.060606L667.151515 244.363636zM152.979394 424.339394C73.852121 402.928485 15.515152 330.317576 15.515152 244.363636l0-186.181818c0-102.741333 83.471515-186.181818 186.181818-186.181818l620.606061 0c102.741333 0 186.181818 83.440485 186.181818 186.181818l0 186.181818c0 85.953939-58.33697 158.564848-137.464242 179.975758C879.709091 455.990303 884.363636 489.192727 884.363636 523.636364c0 205.730909-166.632727 372.363636-372.363636 372.363636S139.636364 729.367273 139.636364 523.636364C139.636364 489.192727 144.290909 455.990303 152.979394 424.339394zM808.029091 430.545455 543.030303 430.545455l0 62.060606 155.151515 0 0 62.060606-155.151515 0L543.030303 616.727273l155.151515 0L698.181818 678.787879l-62.060606 0 62.060606 93.090909c75.403636-56.475152 124.121212-146.773333 124.121212-248.242424C822.30303 491.054545 817.338182 460.024242 808.029091 430.545455zM480.969697 430.545455 215.660606 430.545455C206.661818 460.024242 201.69697 491.054545 201.69697 523.636364c0 101.469091 48.717576 191.767273 124.121212 248.242424l62.060606-93.090909-62.060606 0 0-62.060606 155.151515 0 0-62.060606-155.151515 0 0-62.060606 155.151515 0L480.969697 430.545455zM201.69697 368.484848l620.606061 0c68.57697 0 124.121212-55.544242 124.121212-124.121212l0-186.181818c0-68.57697-55.544242-124.121212-124.121212-124.121212L201.69697-65.939394c-68.57697 0-124.121212 55.544242-124.121212 124.121212l0 186.181818C77.575758 312.940606 133.12 368.484848 201.69697 368.484848zM698.181818 771.878788l-93.090909 0-62.060606-93.090909-62.060606 0-62.060606 93.090909-93.090909 0c51.820606 39.098182 116.363636 62.060606 186.181818 62.060606S646.361212 810.666667 698.181818 771.878788z"  horiz-adv-x="1024" />

    
    <glyph glyph-name="zhuizong" unicode="&#58925;" d="M321.6 352.96c13.76-80.32 77.12-143.68 157.44-157.44L479.04 260.8c-45.12 11.808-80.32 47.04-91.84 92.128L321.6 352.928zM543.04 195.488c80.32 13.792 143.68 77.12 157.44 157.44L635.2 352.928c-11.808-45.12-47.04-80.32-92.128-92.128L543.072 195.488zM700.512 416.96c-13.792 80.32-77.12 143.68-157.44 157.44l0-65.6c45.12-11.52 80.32-46.72 92.128-91.84L700.512 416.96zM479.04 574.4c-80.32-13.76-143.68-77.12-157.44-157.44l65.6 0c11.52 45.12 46.72 80.32 91.84 91.84L479.04 574.4zM160.64 352.96c15.04-168.96 149.44-303.36 318.4-318.4l0 70.72c-129.92 14.4-233.28 117.792-247.68 247.68L160.64 352.96zM543.04 34.56c168.96 15.04 303.36 149.44 318.4 318.4l-70.368 0c-14.752-129.888-118.112-233.28-248-247.68L543.072 34.56zM861.44 416.96c-15.04 168.96-149.44 303.36-318.4 318.72l0-70.72c129.888-14.72 233.28-118.08 248-248L861.44 416.96zM479.04 735.68c-168.96-15.36-303.36-149.76-318.4-318.72l70.72 0c14.4 129.92 117.76 233.28 247.68 248L479.04 735.68zM0 352.96c16-257.28 221.76-463.008 479.04-479.008l0 64.32C256.96-46.4 79.68 130.88 64.32 352.96L0 352.96zM543.04-126.048c257.28 16 463.008 221.76 479.008 479.008l-64.32 0C942.4 130.88 765.12-46.4 543.04-61.76L543.04-126.048zM1022.048 416.96C1006.048 674.24 800.32 880 543.04 896l0-64c222.08-15.68 399.36-192.96 414.688-415.04L1022.048 416.96zM479.04 896C221.76 880 16 674.24 0 416.96l64.32 0C79.68 639.04 257.28 816.32 479.04 832L479.04 896z"  horiz-adv-x="1024" />

    
    <glyph glyph-name="zijinmingxi" unicode="&#58926;" d="M128 640l0-64 128 0 0-64L128 512l0-64 128 0 0-64 64 0 0 64 128 0 0 64-128 0 0 64 128 0L448 640l-96 0 96 96-96 0L288 672 224 736 128 736l96-96L128 640zM512 640l0-64 256 0L768 640 512 640zM128 224l0-64 320 0 0 64L128 224zM512 512l0-64 256 0 0 64L512 512zM128 96l0-64 320 0 0 64L128 96zM640 224l0-64 256 0 0 64-64 0 0 64-64 0 0-64L640 224zM640 96l0-64 64 0 0-64 64 0 0 64 128 0 0 64L640 96zM832 704l0-328c22.72-5.76 44.16-14.72 64-26.24L896 704c0 105.92-86.048 192-192 192L192 896C86.08 896 0 809.92 0 704l0-640c0-105.952 86.08-192 192-192l512 0c10.24 0 20.16 0.64 29.76 2.24C744.928-127.36 756.512-128 768-128c141.44 0 256 114.56 256 256 0 94.72-51.488 177.6-128 221.76-19.84 11.52-41.28 20.48-64 26.24C811.488 381.12 790.048 384 768 384c-141.44 0-256-114.56-256-256 0-76.512 33.6-144.928 86.72-192L192-64c-70.72 0-128 57.28-128 128L64 704c0 70.72 57.28 128 128 128l512 0C774.72 832 832 774.72 832 704zM576 128c0 105.952 86.048 192 192 192s192-86.048 192-192-86.048-192-192-192S576 22.048 576 128z"  horiz-adv-x="1024" />

    
    <glyph glyph-name="chongzhi" unicode="&#58927;" d="M768 0l128 128-96 0 0 128-64 0 0-128-96 0L768 0zM640 480l128 160-96 0-128-160-64 0-128 160L256 640l128-160L256 480l0-64 224 0 0-96L256 320l0-64 224 0 0-128 32 0c0-72.64 30.4-138.56 79.072-185.28C565.44-61.76 538.88-64 512-64 264.64-64 64 136.64 64 384 64 631.36 264.64 832 512 832c247.36 0 448-200.64 448-448 0-26.88-2.24-53.44-6.72-79.072C906.56 353.6 840.64 384 768 384c-64.928 0-124.16-24.32-169.28-64L544 320l0 96 224 0 0 64L640 480zM544 252.16 544 256l2.24 0L544 252.16zM0 384c0-282.88 229.12-512 512-512 52.512 0 103.072 8 150.72 22.72 32-14.72 67.84-22.72 105.28-22.72 141.44 0 256 114.56 256 256 0 37.44-8 73.28-22.72 105.28C1016 280.928 1024 331.488 1024 384c0 282.88-229.12 512-512 512S0 666.88 0 384zM576 128c0 105.952 86.048 192 192 192s192-86.048 192-192-86.048-192-192-192S576 22.048 576 128z"  horiz-adv-x="1024" />

    
    <glyph glyph-name="dongjie" unicode="&#58928;" d="M416 224l0-64 64 0 0 64L416 224zM288 224l0-64 64 0 0 64L288 224zM416 96l0-64 64 0 0 64L416 96zM288 96l0-64 64 0 0 64L288 96zM544 224l0-64 64 0 0 64L544 224zM544 96l0-64 64 0 0 64L544 96zM672 224l0-64 64 0 0 64L672 224zM672 96l0-64 64 0 0 64L672 96zM416 512c0-53.12 42.88-96 96-96 53.12 0 96 42.88 96 96s-42.88 96-96 96C458.88 608 416 565.12 416 512zM480 512c0 17.6 14.4 32 32 32s32-14.4 32-32-14.4-32-32-32S480 494.4 480 512zM288 512c0-123.84 100.16-224 224-224s224 100.16 224 224-100.16 224-224 224S288 635.84 288 512zM352 512c0 88.32 71.68 160 160 160s160-71.68 160-160-71.68-160-160-160S352 423.68 352 512zM192 896C86.08 896 0 809.92 0 704l0-640c0-105.952 86.08-192 192-192l640 0c105.952 0 192 86.048 192 192L1024 704c0 105.92-86.048 192-192 192L192 896zM256 832l512 0c105.952 0 192-86.08 192-192l0-512c0-105.952-86.048-192-192-192L256-64c-105.92 0-192 86.048-192 192L64 640C64 745.92 150.08 832 256 832z"  horiz-adv-x="1024" />

    
    <glyph glyph-name="jiedong" unicode="&#58929;" d="M288.020998 383.952004l0-63.994001 127.988001 0 0-63.994001L288.020998 255.964003l0-63.994001 127.988001 0 0-63.994001 63.994001 0 0 63.994001 127.988001 0 0 63.994001-127.988001 0 0 63.994001 127.988001 0 0 63.994001-42.55601 0 42.55601 63.994001-63.994001 31.997-63.994001-95.991001-63.994001 0-63.994001 95.991001-63.994001-31.997 42.55601-63.994001L288.020998 383.952004zM128.035997 319.958004c0-176.623442 143.346561-319.970003 319.970003-319.970003 176.623442 0 319.970003 143.346561 319.970003 319.970003 0 176.623442-143.346561 319.970003-319.970003 319.970003C271.382558 639.928007 128.035997 496.581445 128.035997 319.958004zM192.029997 319.958004c0 141.426741 114.549261 255.976002 255.976002 255.976002s255.976002-114.549261 255.976002-255.976002-114.549261-255.976002-255.976002-255.976002S192.029997 178.531263 192.029997 319.958004zM895.964003 221.407243l0 286.053183 0 68.473581c0 46.07568-16.31847 88.311721-43.19595 121.588601-35.228697 42.87598-88.951661 70.393401-148.786051 70.393401L192.029997 767.916008c-105.910071 0-191.982002-86.071931-191.982002-191.982002l0-511.952004c0-105.942068 86.071931-191.982002 191.982002-191.982002l511.952004 0c84.792051 0 156.465331 54.71487 182.030935 130.867731 5.791457 2.87973 11.870887 7.99925 17.950317 15.35856l47.9955 58.554511c39.67628 48.31547 71.993251 177.231385 71.993251 287.653033L1023.952004 765.036278c0 110.389651-32.31697 160.944911-71.993251 112.629441l-47.9955-58.554511c-20.15811-24.31772-38.044433-69.113521-51.1952-121.588601 26.87748-33.27688 43.19595-75.512921 43.19595-121.588601l0-68.473581c0 79.032591 10.87898 171.183952 23.99775 205.740712l15.9985 41.5961c13.11877 34.55676 23.99775-1.59985 23.99775-80.312471l0-286.053183c0-79.032591-10.87898-171.183952-23.99775-205.740712l-15.9985-41.5961c-13.11877-34.23679-23.67778 0.63994-23.99775 77.752711l0 0.63994 0 0.991907L895.964003 221.407243zM192.029997 703.922007l511.952004 0c70.713371 0 127.988001-57.274631 127.988001-127.988001l0-44.47583 0-400.602444 0-66.873731c0-70.713371-57.274631-127.988001-127.988001-127.988001L192.029997-64.005999c-70.713371 0-127.988001 57.274631-127.988001 127.988001l0 511.952004C64.041996 646.647377 121.316627 703.922007 192.029997 703.922007z"  horiz-adv-x="1024" />

    
    <glyph glyph-name="chongzhi1" unicode="&#58930;" d="M768 0l128 128-96 0 0 128-64 0 0-128-96 0L768 0zM640 480l128 160-96 0-128-160-64 0-128 160L256 640l128-160L256 480l0-64 224 0 0-96L256 320l0-64 224 0 0-128 32 0c0-72.64 30.4-138.56 79.072-185.28C565.44-61.76 538.88-64 512-64 264.64-64 64 136.64 64 384 64 631.36 264.64 832 512 832c247.36 0 448-200.64 448-448 0-26.88-2.24-53.44-6.72-79.072C906.56 353.6 840.64 384 768 384c-64.928 0-124.16-24.32-169.28-64L544 320l0 96 224 0 0 64L640 480zM544 252.16 544 256l2.24 0L544 252.16zM0 384c0-282.88 229.12-512 512-512 52.512 0 103.072 8 150.72 22.72 32-14.72 67.84-22.72 105.28-22.72 141.44 0 256 114.56 256 256 0 37.44-8 73.28-22.72 105.28C1016 280.928 1024 331.488 1024 384c0 282.88-229.12 512-512 512S0 666.88 0 384zM576 128c0 105.952 86.048 192 192 192s192-86.048 192-192-86.048-192-192-192S576 22.048 576 128z"  horiz-adv-x="1024" />

    
    <glyph glyph-name="jiangbei" unicode="&#58931;" d="M202.24 765.76C195.52 746.24 192 725.44 192 704l0-192 0-0.64c0-17.92 0.96-35.84 2.56-53.12C118.72 483.84 64 555.52 64 640 64 727.36 122.24 757.76 202.24 765.76zM205.12 388.8c32.64-141.728 124.8-246.72 274.88-259.52L480 192l32 0c-176.64 0-256 143.36-256 320L256 704c0 70.72 57.28 128 128 128l256 0c70.72 0 128-57.28 128-128l0-192 0-0.64 0-0.64C767.072 334.4 688.32 192 512 192l32 0 0-62.72c150.048 13.12 241.952 117.792 274.56 259.52C935.68 412.48 1024 515.84 1024 640c0 136.32-106.24 188.16-240.64 191.68C748.16 871.36 696.928 896 640 896l-256 0c-56.96 0-108.16-24.64-143.36-64.32C106.24 828.16 0 776.32 0 640 0 515.84 88.32 412.48 205.12 388.8zM829.44 458.24c1.632 16.64 2.56 33.92 2.56 51.52l0 0.96L832 512 832 704c0 21.44-3.488 42.24-10.24 61.76C901.76 757.76 960 727.36 960 640 960 555.52 905.28 483.84 829.44 458.24zM480 192l0-62.72L480 64l-138.56 0C294.08 64 256 21.12 256-32s38.08-96 85.44-96l341.12 0c47.36 0 85.44 42.88 85.44 96s-38.048 96-85.44 96L544 64l0 65.28L544 192l-32 0L480 192zM480 0l64 0 96 0c35.2 0 64-14.4 64-32s-28.8-32-64-32l-256 0c-35.2 0-64 14.4-64 32s28.8 32 64 32L480 0z"  horiz-adv-x="1024" />

    
    <glyph glyph-name="shouru" unicode="&#58932;" d="M0 512l4.48 0C1.6 522.56 0 533.12 0 544L0 512zM1024 288l0 32c0-10.88-1.6-21.44-4.48-32L1024 288zM0 64l4.48 0C1.6 74.56 0 85.12 0 96L0 64zM896 64l0 32c0-10.88-1.6-21.44-4.48-32L896 64zM4.48 512c13.76-48.32 58.56-91.52 123.52-124.8l0-6.4c-79.072-40.288-128-95.68-128-156.8 0-10.88 1.6-21.44 4.48-32L0 192l0-96c0-10.88 1.6-21.44 4.48-32C35.52-44.512 222.4-128 448-128s412.48 83.488 443.52 192c2.88 10.56 4.48 21.12 4.48 32l0 67.2c65.28 33.312 109.76 76.512 123.52 124.8 2.88 10.56 4.48 21.12 4.48 32l0 96-4.48 0c2.88 10.56 4.48 21.12 4.48 32 0 61.12-48.96 116.48-128 156.8L896 640l-4.48 0C894.4 650.56 896 661.12 896 672c0 123.84-200.64 224-448 224S0 795.84 0 672c0-10.88 1.6-21.44 4.48-32L0 640l0-96C0 533.12 1.6 522.56 4.48 512zM896 512l-0.32 24.64C936.32 511.36 960 480.64 960 448c0-88.32-171.84-160-384-160-99.52 0-190.048 15.68-258.56 41.6 41.6-6.4 85.12-9.6 130.56-9.6 225.6 0 412.48 83.52 443.52 192L896 512zM352 453.12l0-64c-22.048 2.24-43.52 5.44-64 9.6l0 64C308.8 458.88 329.952 455.68 352 453.12zM416 384.64l0 64C426.56 448 437.12 448 448 448s21.44 0.32 32 0.64l0-64C469.44 384 458.88 384 448 384S426.56 384.32 416 384.64zM64 544l0 12.48c9.6-8 20.48-16 32-23.04L96 480C75.52 499.52 64 521.28 64 544zM160 500.48c19.84-8.64 41.28-16 64-22.72l0-63.68c-23.36 7.04-44.8 15.04-64 24.32L160 500.48zM544 453.44c22.048 2.24 43.2 5.44 64 9.28l0-64.32c-20.48-3.84-41.952-7.04-64-9.6L544 453.44zM672 478.08c22.72 6.4 44.16 14.08 64 22.4l0-62.4c-19.2-8.96-40.64-17.28-64-24.32L672 478.08zM800 533.44c11.52 7.36 22.4 15.04 32 23.04L832 544c0-22.72-11.52-44.48-32-64.32L800 533.44zM64 672c0 88.32 171.84 160 384 160s384-71.68 384-160-171.84-160-384-160S64 583.68 64 672zM128 288l4.48 0C163.52 179.488 350.4 96 576 96c45.44 0 89.28 3.2 130.56 9.6C638.048 79.68 547.52 64 448 64c-212.16 0-384 71.68-384 160 0 32.64 23.68 63.36 64.32 88.64L128 288zM192 320l0 12.512c9.6-8 20.48-16 32-23.072l0-53.76C203.52 275.488 192 297.28 192 320zM288 276.512c19.84-8.672 41.28-16 64-22.752l0-64C320.32 199.36 291.84 210.88 268.48 224L288 224 288 276.512zM416 238.72c20.8-3.84 41.952-7.328 64-9.6l0-64.32c-22.048 2.56-43.52 5.76-64 9.6L416 238.72zM544 224.64C554.56 224 565.12 224 576 224s21.44 0.32 32 0.64l0-64C597.44 160 586.88 160 576 160s-21.44 0-32 0.64L544 224.64zM672 229.44c22.048 2.24 43.2 5.44 64 9.28l0-64.32c-20.48-3.84-41.952-7.04-64-9.6L672 229.44zM800 254.048c22.72 6.432 44.16 14.08 64 22.432l0-62.432c-19.2-8.928-40.64-17.248-64-24.32L800 254.048zM928 309.44c11.52 7.36 22.4 15.072 32 23.072L960 320c0-22.72-11.52-44.512-32-64.32L928 309.44zM64 96l0 12.512c9.6-8 20.48-16 32-23.072l0-53.76C75.52 51.488 64 73.28 64 96zM160 52.512c19.84-8.672 41.28-16 64-22.752l0-64c-23.36 7.072-44.8 15.36-64 24.32L160 52.512zM288 14.72c20.8-3.84 41.952-7.328 64-9.6l0-64.32c-22.048 2.56-43.52 5.76-64 9.6L288 14.72zM416 0.64C426.56 0 437.12 0 448 0s21.44 0.32 32 0.64l0-64C469.44-64 458.88-64 448-64s-21.44 0-32 0.64L416 0.64zM544 5.44c22.048 2.24 43.2 5.44 64 9.28l0-64.32c-20.48-3.84-41.952-7.04-64-9.6L544 5.44zM672 30.048c22.72 6.432 44.16 14.08 64 22.432l0-62.432c-19.2-8.928-40.64-17.248-64-24.32L672 30.048zM800 85.44c11.52 7.36 22.4 15.072 32 23.072L832 96c0-22.72-11.52-44.512-32-64.32L800 85.44z"  horiz-adv-x="1024" />

    
    <glyph glyph-name="wodelicai" unicode="&#58933;" d="M543.998 224.041997l0 31.998 0 31.998 2.55984 0c4.15974 23.070558 11.83926 44.509218 23.03856 63.996L543.998 352.033998l0 63.996 85.75464 0c13.11918 8.63946 27.1983 15.67902 42.23736 21.11868L671.990001 480.025998l-47.997 0 47.997 95.994-95.994 0-47.997-95.994-31.998 0L448.004 576.019999l-95.994 0 47.997-95.994L352.009999 480.025998l0-63.996 127.992 0 0-63.996-127.992 0 0-63.996 127.992 0 0-63.996L543.998 224.041997zM192.019999 326.115618C192.019999 148.174739 335.371039 96.049997 512 96.049997l2.23986 0c14.367102 24.926442 32.63796 47.069058 54.364602 65.563902l-4.127742 7.67952c-16.670958-1.567902-34.55784-2.175864-52.508718-2.175864-137.591401 0-248.944441 40.63746-248.944441 179.156803 0 43.51728 11.1993 145.270921 30.3981 166.389601-19.1988 35.83776-30.3981 44.7972-30.3981 48.31698 0 138.551341 497.856884 138.551341 497.856884 0 0-13.75914-11.1993-12.47922-30.366102-48.31698 8.63946-9.5994 15.67902-35.51778 20.7987-65.27592 26.206362-1.91988 50.87682-9.27942 72.923442-20.7987-6.71958 49.5969-17.246922 98.23386-31.35804 113.91288C817.932879 586.259359 831.980001 546.581839 831.980001 602.578339c0 177.908881-639.960002 177.908881-639.960002 0 0-55.9965 14.07912-16.31898 39.03756-62.07612C206.099119 513.303919 192.019999 382.112118 192.019999 326.115618zM192.019999 896C86.106618 896 0.031998 809.92538 0.031998 704.011999l0-575.964002c0-105.945378 86.07462-191.988001 191.988001-191.988001l289.901881 0c-1.27992 10.55934-1.91988 21.11868-1.91988 31.998s0.63996 21.43866 1.91988 31.998L192.019999 0.055997c-70.71558 0-127.992 57.244422-127.992 127.992L64.027998 704.011999c0 70.71558 57.27642 127.992 127.992 127.992l639.960002 0c70.71558 0 127.992-57.27642 127.992-127.992l0-575.964002c0-10.23936-1.27992-20.510718-3.51978-29.75814 14.71908-25.310418 25.5984-53.11668 31.070058-82.55484C1010.528842 47.125055 1023.968002 86.130617 1023.968002 128.047997L1023.968002 704.011999c0 105.91338-86.042622 191.988001-191.988001 191.988001L192.019999 896zM607.994 251.880257c0-47.325042 23.9985-88.63446 60.15624-112.31298C595.482782 111.441035 543.998 39.125555 543.998-45.669146c0-109.75314 383.976001-109.75314 383.976001 0 0 84.7947-51.484782 157.110181-123.83226 185.236423C839.979501 163.245797 863.978001 204.555215 863.978001 251.880257c0 72.987438-57.27642 132.151741-127.992 132.151741S607.994 324.867696 607.994 251.880257zM671.990001 251.880257c0 36.509718 28.7982 65.947878 63.996 65.947878s63.996-29.43816 63.996-65.947878c0-24.63846-12.7992-45.75714-31.998-57.244422l0-95.67402c55.35654-14.751078 95.994-66.55584 95.994-128.311981 0-72.987438-255.984001-72.987438-255.984001 0 0 61.75614 40.63746 113.560902 95.994 128.311981l0 95.67402C684.789201 206.123117 671.990001 227.241797 671.990001 251.880257z"  horiz-adv-x="1024" />

    
    <glyph glyph-name="wodejingji" unicode="&#58934;" d="M192.029997-63.910008l287.973003 0c0 10.87898 0.63994 53.43499 1.951817 63.994001L192.029997 0.083992c-70.713371 0-127.988001 57.274631-127.988001 127.988001L64.041996 704.017998c0 70.713371 57.274631 127.988001 127.988001 127.988001l639.940006 0c70.713371 0 127.988001-57.274631 127.988001-127.988001l0-575.946005c0-10.23904-1.27988-20.510077-3.51967-29.75721 14.71862-25.309627 25.5976-53.11502 31.069087-82.552261C1010.513264 47.15158 1023.952004 86.123926 1023.952004 128.071993L1023.952004 704.017998c0 105.910071-86.039934 191.982002-191.982002 191.982002L192.029997 896C86.087929 896 0.047996 809.928069 0.047996 704.017998l0-575.946005C0.047996 22.129925 86.087929-63.910008 192.029997-63.910008zM607.991001 251.900384c0-47.323563 23.99775-88.663688 60.154361-112.341468C595.512171 111.433553 543.997 39.152329 543.997-45.671718c0-109.749711 383.964003-109.749711 383.964003 0 0 84.792051-51.51517 157.105271-123.828391 185.230635C839.969253 163.268694 863.967003 204.576821 863.967003 251.900384c0 72.953161-57.274631 132.147611-127.988001 132.147611S607.991001 324.853545 607.991001 251.900384zM671.985001 251.900384c0 36.47658 28.7973 65.913821 63.994001 65.913821s63.994001-29.43724 63.994001-65.913821c0-24.669687-12.7988-45.787707-31.997-57.274631l0-95.671031c55.35481-14.71862 95.991001-66.553761 95.991001-128.307971 0-72.953161-255.976002-72.953161-255.976002 0 0 61.754211 40.63619 113.589351 95.991001 128.307971l0 95.671031C684.783802 206.112677 671.985001 227.262694 671.985001 251.900384zM357.454489 253.820204C397.770709 215.423804 452.165609 192.065994 512 192.065994c14.046683 0 28.15736 1.27988 41.5961 3.83964C547.51667 214.783864 543.997 234.941974 543.997 256.059994l0 3.1997c-10.23904-2.23979-21.11802-3.1997-31.997-3.1997-27.51742 0-53.11502 7.071337-75.832891 19.1982L357.454489 253.820204zM666.545511 578.269787C626.197294 616.666188 571.834391 640.023998 512 640.023998c-102.038434 0-187.822392-68.153611-215.051839-161.264881l78.744618 21.43799C403.850139 545.632847 454.405399 576.029997 512 576.029997c27.51742 0 53.11502-7.03934 75.512921-19.1982L666.545511 578.269787zM543.997 448.041996l0-63.994001 60.794301 12.15886C639.028091 428.523826 685.103772 448.041996 735.979002 448.041996c23.67778 0 46.39565-4.15961 67.193701-12.15886l59.226448 11.83889L863.967003 448.041996l0 63.994001-12.7988-2.55976C810.532013 658.582258 673.936818 768.011999 512 768.011999 328.337218 768.011999 177.631347 627.545168 161.312877 448.361966l66.233791 13.43874C249.304628 599.067837 368.333469 704.017998 512 704.017998c130.867731 0 241.577352-87.351811 276.454082-207.020592L607.991001 460.840796 607.991001 512.035997l-63.994001 0L543.997 448.041996zM536.925663 129.351873C528.63844 128.391963 520.31922 128.071993 512 128.071993c-130.867731 0-241.577352 87.351811-276.454082 207.052589L416.008999 371.249195 416.008999 320.053995l63.994001 0 0 63.994001 0 63.994001-255.336062-51.1952L161.312877 384.367966 160.032997 384.047996l0-63.994001 12.47883 2.55976c39.99625-144.946411 170.224041-252.488329 326.049433-258.215792C508.16036 88.075743 521.27913 109.833703 536.925663 129.351873z"  horiz-adv-x="1024" />

    
    <glyph glyph-name="tixian" unicode="&#58935;" d="M352 384l0-64 128 0 0-64-128 0 0-64 128 0 0-64 64 0 0 64 128 0 0 64-128 0 0 64 128 0 0 64-96 0 96 96-96 0-64-64-64 64-96 0 96-96L352 384zM192 896C86.08 896 0 809.92 0 704l0-128c0-105.92 86.08-192 192-192l0-512 640 0L832 384c105.952 0 192 86.08 192 192L1024 704c0 105.92-86.048 192-192 192L192 896zM192 448c-70.72 0-128 57.28-128 128L64 704c0 70.72 57.28 128 128 128l640 0c70.72 0 128-57.28 128-128l0-128c0-70.72-57.28-128-128-128L832 704 192 704 192 448zM256 640l512 0 0-704L256-64 256 640z"  horiz-adv-x="1024" />

    
    <glyph glyph-name="dongjie2" unicode="&#58936;" d="M496 448c0-8.8 7.2-16 16-16s16 7.2 16 16-7.2 16-16 16S496 456.8 496 448zM464 448c0 26.56 21.44 48 48 48s48-21.44 48-48-21.44-48-48-48S464 421.44 464 448zM432 448c0-44.16 35.84-80 80-80s80 35.84 80 80-35.84 80-80 80S432 492.16 432 448zM464 304l32 0 0-32-32 0L464 304zM400 304l32 0 0-32-32 0L400 304zM464 240l32 0 0-32-32 0L464 240zM400 240l32 0 0-32-32 0L400 240zM528 304l32 0 0-32-32 0L528 304zM528 240l32 0 0-32-32 0L528 240zM592 304l32 0 0-32-32 0L592 304zM592 240l32 0 0-32-32 0L592 240zM400 448c0 61.92 50.08 112 112 112s112-50.08 112-112-50.08-112-112-112S400 386.08 400 448zM384 608c-52.976 0-96-43.024-96-96l0-256c0-52.976 43.024-96 96-96l256 0c52.976 0 96 43.024 96 96L736 512c0 52.976-43.024 96-96 96L384 608zM0 384c0-282.72 229.28-512 512-512s512 229.28 512 512S794.72 896 512 896 0 666.72 0 384zM352 640l320 0c52.976 0 96-43.024 96-96l0-320c0-52.976-43.024-96-96-96L352 128c-52.976 0-96 43.024-96 96L256 544C256 596.976 299.024 640 352 640z"  horiz-adv-x="1024" />

    
    <glyph glyph-name="jiedong2" unicode="&#58937;" d="M400 384l21.28 0L400 416l32 16 32-48 32 0 32 48 32-16-21.28-32L560 384l0-32-64 0 0-32 64 0 0-32-64 0 0-32-32 0 0 32-64 0 0 32 64 0 0 32-64 0L400 384zM352 352c0-70.72 57.28-128 128-128s128 57.28 128 128-57.28 128-128 128S352 422.72 352 352zM320 352c0 88.32 71.68 160 160 160s160-71.68 160-160-71.68-160-160-160S320 263.68 320 352zM352 544c-35.36 0-64-28.64-64-64l0-256c0-35.36 28.64-64 64-64l256 0c35.36 0 64 28.64 64 64l0 33.44L672 457.76 672 480c0 35.36-28.64 64-64 64L352 544zM0 384c0-282.72 229.28-512 512-512s512 229.28 512 512S794.72 896 512 896 0 666.72 0 384zM704 302.72l0-0.48 0-0.464 0-0.336c0.16-38.544 5.44-56 12-38.88l8 20.8c6.56 17.28 12 63.36 12 102.88l0 143.04c0 39.36-5.44 57.44-12 40.16l-8-20.8C709.44 531.36 704 485.28 704 445.76L704 480c0 23.024-8.16 44.16-21.6 60.8 6.56 26.24 15.52 48.64 25.6 60.8l24 29.296C751.84 655.024 768 629.76 768 574.56L768 374.24c0-55.2-16.16-119.664-36-143.824l-24-29.296c-3.024-3.664-6.08-6.224-8.976-7.664C686.24 155.36 650.4 128 608 128L352 128c-52.976 0-96 43.024-96 96L256 480c0 52.976 43.024 96 96 96l256 0c29.92 0 56.8-13.76 74.4-35.2C695.84 524.16 704 503.024 704 480l0-34.24L704 302.72z"  horiz-adv-x="1024" />

    
    <glyph glyph-name="tixian2" unicode="&#58938;" d="M352 416l0 128 320 0 0-128c35.36 0 64 28.64 64 64l0 64c0 35.36-28.64 64-64 64L352 608c-35.36 0-64-28.64-64-64l0-64C288 444.64 316.64 416 352 416zM432 384l48 0-48 48 48 0 32-32 32 32 48 0-48-48 48 0 0-32-64 0 0-32 64 0 0-32-64 0 0-32-32 0 0 32-64 0 0 32 64 0 0 32-64 0L432 384zM384 512l0-352 256 0L640 512 384 512zM0 384c0-282.72 229.28-512 512-512s512 229.28 512 512S794.72 896 512 896 0 666.72 0 384zM352 640l320 0c52.976 0 96-43.024 96-96l0-64c0-52.976-43.024-96-96-96l0-256L352 128 352 384c-52.96 0-96 43.024-96 96l0 64C256 596.976 299.04 640 352 640z"  horiz-adv-x="1024" />

    
    <glyph glyph-name="chongzhi2" unicode="&#58939;" d="M576 432l64 0 0-32-112 0 0-48 27.36 0c22.56 19.84 52.176 32 84.64 32 36.32 0 69.28-15.2 92.64-39.52C734.88 357.28 736 370.56 736 384c0 123.68-100.32 224-224 224-123.68 0-224-100.32-224-224s100.32-224 224-224c13.44 0 26.72 1.104 39.536 3.36C527.2 186.72 512 219.68 512 256l-16 0 0 64-112 0 0 32 112 0 0 48-112 0 0 32 64 0-64 80 48 0 64-80 32 0 64 80 48 0L576 432zM528 318.08 529.12 320 528 320 528 318.08zM640 192l-64 64 48 0 0 64 32 0 0-64 48 0L640 192zM544 256c0-52.976 43.024-96 96-96s96 43.024 96 96-43.024 96-96 96S544 308.976 544 256zM0 384c0-282.72 229.28-512 512-512s512 229.28 512 512S794.72 896 512 896 0 666.72 0 384zM256 384c0 141.44 114.56 256 256 256s256-114.56 256-256c0-26.24-4-51.52-11.36-75.36 7.36-16 11.36-33.92 11.36-52.64 0-70.72-57.28-128-128-128-18.72 0-36.64 4-52.64 11.36C563.536 132 538.256 128 512 128 370.56 128 256 242.56 256 384z"  horiz-adv-x="1024" />

    
    <glyph glyph-name="zhichu2" unicode="&#58940;" d="M704 448l-2.256 0c-7.184-24.976-30.72-47.2-64.96-64.16L640 384c21.6 0 41.92-5.44 59.68-14.72C722.56 382.4 736 398.56 736 416c0 16.32-11.84 31.68-32.16 44.32L704 448zM540.16 336c7.376 9.44 16.32 17.6 26.08 24.64C539.68 355.024 510.56 352 480 352c-22.72 0-44.48 1.6-65.28 4.8C448 344.16 491.84 336.48 540.16 336zM432 418.56c-11.04 1.28-21.6 2.88-32 4.8l0-32c10.24-2.08 20.96-3.664 32-4.8L432 418.56zM464 384.32c5.28-0.16 10.56-0.32 16-0.32s10.72 0 16 0.32l0 32C490.72 416.16 485.44 416 480 416s-10.72 0-16 0.32L464 384.32zM288 464c0-11.36 5.76-22.24 16-32l0 26.72c-5.76 3.52-11.2 7.52-16 11.52L288 464zM336 442.24 336 411.2c9.6-4.64 20.32-8.64 32-12.176l0 31.856C356.64 434.24 345.92 437.92 336 442.24zM528 418.72l0-32.16c11.024 1.12 21.744 2.72 32 4.64l0 32.16C549.6 421.44 539.024 419.84 528 418.72zM592 431.024l0-32.144c11.68 3.52 22.4 7.664 32 12.144l0 31.2C614.08 438.08 603.36 434.24 592 431.024zM656 458.72l0-26.88c10.24 9.92 16 20.8 16 32.16l0 6.24C667.2 466.24 661.744 462.4 656 458.72zM288 528c0-44.16 85.92-80 192-80s192 35.84 192 80-85.92 80-192 80S288 572.16 288 528zM320 336l0.16 12.32C299.84 335.68 288 320.32 288 304c0-44.16 85.92-80 192-80 12.16 0 24.16 0.48 35.68 1.44-1.28 4.976-2.24 10.256-2.88 15.664C414.4 247.84 336.32 286.896 322.24 336L320 336zM352 352c0-11.36 5.76-22.24 16-32.16l0 26.88c-5.76 3.52-11.2 7.52-16 11.52L352 352zM400 330.24 400 304l-9.76 0c11.68-6.56 25.92-12.32 41.76-17.104l0 32C420.64 322.24 409.92 325.92 400 330.24zM464 311.36l0-32.16c10.24-1.92 20.96-3.52 32-4.64l0 32C484.96 307.68 474.4 309.44 464 311.36zM726.08 350.72c3.04-2.72 5.76-5.44 8.48-8.48C735.536 345.44 736 348.64 736 352l0 6.24C732.976 355.68 729.6 353.104 726.08 350.72zM288 240c0-11.36 5.76-22.24 16-32.16l0 26.88c-5.76 3.52-11.2 7.52-16 11.52L288 240zM336 218.24l0-31.2c9.6-4.464 20.32-8.624 32-12.144l0 32C356.64 210.24 345.92 213.92 336 218.24zM400 199.36l0-32.16c10.24-1.92 20.96-3.52 32-4.64l0 32C420.96 195.68 410.4 197.44 400 199.36zM464 192.32l0-32C469.28 160 474.56 160 480 160s10.72 0 16 0.32l0 32C490.72 192.16 485.44 192 480 192S469.28 192 464 192.32zM549.6 165.28c-8.464 8.48-15.664 18.08-21.6 28.64l0-31.36C535.36 163.2 542.56 164.16 549.6 165.28zM640 320l64-64-48 0 0-64-32 0 0 64-48 0L640 320zM544 256c0-52.976 43.024-96 96-96s96 43.024 96 96-43.024 96-96 96S544 308.976 544 256zM0 384c0-282.72 229.28-512 512-512s512 229.28 512 512S794.72 896 512 896 0 666.72 0 384zM256 448l0 16c0-5.44 0.8-10.72 2.24-16L256 448zM256 464l0 48 2.24 0C256.8 517.28 256 522.56 256 528c0 61.92 100.32 112 224 112 123.68 0 224-50.08 224-112 0-5.44-0.8-10.72-2.256-16L704 512l0-17.6c39.536-20.176 64-47.84 64-78.4 0-5.44-0.8-10.72-2.256-16L768 400l0-48c0-5.44-0.8-10.72-2.256-16-2.224-7.84-6.064-15.36-11.344-22.56C763.024 296.16 768 276.64 768 256c0-70.72-57.28-128-128-128-20 0-38.88 4.64-55.84 12.8C553.12 132.64 517.6 128 480 128c-112.8 0-206.24 41.76-221.76 96C256.8 229.28 256 234.56 256 240l0 48 2.24 0C256.8 293.28 256 298.56 256 304c0 30.56 24.48 58.24 64 78.4L320 385.6c-32.48 16.64-54.88 38.256-61.76 62.4C256.8 453.28 256 458.56 256 464zM768 336l-2.256 0C767.2 341.28 768 346.56 768 352L768 336zM256 224l0 16c0-5.44 0.8-10.72 2.24-16L256 224z"  horiz-adv-x="1024" />

    
    <glyph glyph-name="shouru2" unicode="&#58941;" d="M704 448l-2.256 0c-15.504-54.24-108.96-96-221.744-96-22.72 0-44.48 1.6-65.28 4.8C448.96 343.84 494.24 336 544 336c106.08 0 192 35.84 192 80 0 16.32-11.84 31.68-32.16 44.32L704 448zM432 418.56c-11.04 1.28-21.6 2.88-32 4.8l0-32c10.24-2.08 20.96-3.664 32-4.8L432 418.56zM464 384.32c5.28-0.16 10.56-0.32 16-0.32s10.72 0 16 0.32l0 32C490.72 416.16 485.44 416 480 416s-10.72 0-16 0.32L464 384.32zM288 464c0-11.36 5.76-22.24 16-32l0 26.72c-5.76 3.52-11.2 7.52-16 11.52L288 464zM336 442.24 336 411.2c9.6-4.64 20.32-8.64 32-12.176l0 31.856C356.64 434.24 345.92 437.92 336 442.24zM528 418.72l0-32.16c11.024 1.12 21.744 2.72 32 4.64l0 32.16C549.6 421.44 539.024 419.84 528 418.72zM592 431.024l0-32.144c11.68 3.52 22.4 7.664 32 12.144l0 31.2C614.08 438.08 603.36 434.24 592 431.024zM656 458.72l0-26.88c10.256 9.92 16 20.8 16 32.16l0 6.24C667.2 466.24 661.744 462.4 656 458.72zM288 528c0-44.16 85.92-80 192-80s192 35.84 192 80-85.92 80-192 80S288 572.16 288 528zM320 336l0 12.32c-20.16-12.624-32-28-32-44.32 0-44.16 85.92-80 192-80 49.744 0 95.024 7.84 129.12 20.8C588.64 241.6 566.72 240 544 240c-112.8 0-206.24 41.76-221.76 96L320 336zM352 352c0-11.36 5.76-22.24 16-32.16l0 26.88c-5.76 3.52-11.2 7.52-16 11.52L352 352zM400 330.24 400 304l-9.76 0c11.68-6.56 25.92-12.32 41.76-17.104l0 32C420.64 322.24 409.92 325.92 400 330.24zM464 311.36l0-32.16c10.24-1.92 20.96-3.52 32-4.64l0 32C484.96 307.68 474.4 309.44 464 311.36zM528 304.32l0-32C533.28 272 538.56 272 544 272s10.72 0 16 0.32l0 32C554.72 304.16 549.44 304 544 304S533.28 304 528 304.32zM592 306.72l0-32.16c11.024 1.12 21.744 2.72 32 4.64l0 32.16C613.6 309.44 603.024 307.84 592 306.72zM656 319.024l0-32.144c11.68 3.52 22.4 7.664 32 12.144l0 31.2C678.08 326.08 667.36 322.24 656 319.024zM720 346.72l0-26.88c10.256 9.92 16 20.8 16 32.16l0 6.24C731.2 354.24 725.744 350.4 720 346.72zM288 240c0-11.36 5.76-22.24 16-32.16l0 26.88c-5.76 3.52-11.2 7.52-16 11.52L288 240zM336 218.24l0-31.2c9.6-4.464 20.32-8.624 32-12.144l0 32C356.64 210.24 345.92 213.92 336 218.24zM400 199.36l0-32.16c10.24-1.92 20.96-3.52 32-4.64l0 32C420.96 195.68 410.4 197.44 400 199.36zM464 192.32l0-32C469.28 160 474.56 160 480 160s10.72 0 16 0.32l0 32C490.72 192.16 485.44 192 480 192S469.28 192 464 192.32zM528 194.72l0-32.16c11.024 1.12 21.744 2.72 32 4.64l0 32.16C549.6 197.44 539.024 195.84 528 194.72zM592 207.024l0-32.144c11.68 3.52 22.4 7.664 32 12.144l0 31.2C614.08 214.08 603.36 210.24 592 207.024zM656 234.72l0-26.88c10.256 9.92 16 20.8 16 32.16l0 6.24C667.2 242.24 661.744 238.4 656 234.72zM0 384c0-282.72 229.28-512 512-512s512 229.28 512 512S794.72 896 512 896 0 666.72 0 384zM256 448l0 16c0-5.44 0.8-10.72 2.24-16L256 448zM256 464l0 48 2.24 0C256.8 517.28 256 522.56 256 528c0 61.92 100.32 112 224 112 123.68 0 224-50.08 224-112 0-5.44-0.8-10.72-2.256-16L704 512l0-17.6c39.536-20.176 64-47.84 64-78.4 0-5.44-0.8-10.72-2.256-16L768 400l0-48c0-5.44-0.8-10.72-2.256-16-6.88-24.16-29.104-45.76-61.744-62.4L704 240c0-5.44-0.8-10.72-2.256-16-15.504-54.24-108.96-96-221.744-96s-206.24 41.76-221.76 96C256.8 229.28 256 234.56 256 240l0 48 2.24 0C256.8 293.28 256 298.56 256 304c0 30.56 24.48 58.24 64 78.4L320 385.6c-32.48 16.64-54.88 38.256-61.76 62.4C256.8 453.28 256 458.56 256 464zM768 336l-2.256 0C767.2 341.28 768 346.56 768 352L768 336zM256 224l0 16c0-5.44 0.8-10.72 2.24-16L256 224zM704 224l-2.256 0C703.2 229.28 704 234.56 704 240L704 224z"  horiz-adv-x="1024" />

    
    <glyph glyph-name="anniu2" unicode="&#58942;" d="M0 384c0-282.763636 229.236364-512 512-512l1024 0c282.763636 0 512 229.236364 512 512S1818.763636 896 1536 896L512 896C229.236364 896 0 666.763636 0 384zM1070.545455 384c0 257.163636 208.290909 465.454545 465.454545 465.454545s465.454545-208.290909 465.454545-465.454545-208.290909-465.454545-465.454545-465.454545S1070.545455 126.836364 1070.545455 384z"  horiz-adv-x="2048" />

    
    <glyph glyph-name="anniu1" unicode="&#58943;" d="M1536 896 512 896C229.236364 896 0 666.763636 0 384s229.236364-512 512-512l1024 0c282.763636 0 512 229.236364 512 512S1818.763636 896 1536 896zM512-81.454545C254.836364-81.454545 46.545455 126.836364 46.545455 384S254.836364 849.454545 512 849.454545s465.454545-208.290909 465.454545-465.454545S769.163636-81.454545 512-81.454545z"  horiz-adv-x="2048" />

    
    <glyph glyph-name="jiedong21" unicode="&#58944;" d="M644.517647 513.204706c-5.451294-19.877647-12.348235-37.345882-20.781176-52.103529 15.691294-0.903529 27.075765-1.204706 34.936471-1.204706 11.143529 0 19.546353 3.011765 24.395294 8.432941 4.818824 5.722353 9.366588 20.48 13.552941 44.875294L644.517647 513.204706zM422.249412 199.378824l6.927059 40.056471-26.804706 0-11.444706-64.752941c11.143529-0.632471 18.672941 1.204706 22.588235 4.517647C417.430588 182.211765 420.141176 189.108706 422.249412 199.378824zM348.16 327.68l-8.432941-44.272941 25.298824 0 7.830588 44.272941L348.16 327.68zM418.032941 327.68l-7.830588-44.272941 26.804706 0 7.830588 44.272941L418.032941 327.68zM364.122353 416.828235l-8.131765-44.875294 24.395294 0 8.131765 44.875294L364.122353 416.828235zM452.367059 371.952941l8.131765 44.875294L433.694118 416.828235l-8.131765-44.875294L452.367059 371.952941zM398.456471 502.964706c-11.143529-14.155294-22.889412-28.009412-35.538824-40.96l55.416471 0 29.816471 40.96L398.456471 502.964706zM30.117647 361.411765c0-266.24 215.642353-481.882353 481.882353-481.882353s481.882353 215.642353 481.882353 481.882353-215.642353 481.882353-481.882353 481.882353S30.117647 627.651765 30.117647 361.411765zM704.752941 413.515294c-12.649412-5.722353-39.183059-8.432941-79.239529-8.432941 0.301176 19.275294-0.602353 37.345882-3.011765 53.910588-15.058824-24.997647-39.755294-46.983529-74.390588-66.258824-9.637647 16.865882-20.48 33.731765-33.430588 50.296471 38.550588 17.769412 61.44 41.261176 68.969412 70.174118l-43.670588 0 9.035294 51.2 220.431059 0c-12.649412-66.56-23.491765-106.616471-32.527059-120.771765S717.131294 419.538824 704.752941 413.515294zM484.592941 200.583529l9.035294 51.802353 96.948706 0 9.065412 51.802353-43.971765 0c-9.035294-15.36-18.371765-29.485176-28.009412-42.134588-15.058824 9.035294-28.912941 16.564706-41.562353 22.588235l-17.769412-100.291765c-3.011765-18.100706-9.035294-32.225882-17.167059-42.767059-7.830588-9.637647-18.070588-15.962353-31.021176-18.100706-12.649412-1.505882-26.503529-2.710588-42.164706-2.710588l-0.602353 29.515294-35.84 0 15.661176 89.148235-28.009412 0c-14.155294-53.338353-31.021176-95.171765-50.898824-126.192941-12.047059 19.305412-23.792941 35.237647-35.84 47.887059 24.997647 40.056471 43.971765 98.785882 57.524706 176.218353l13.854118 77.703529-10.541176-8.734118c-0.301176 20.178824-1.807059 42.164706-4.818824 65.355294 37.948235 33.129412 69.571765 70.475294 94.569412 112.64l56.018824-7.529412c-5.421176-9.336471-11.444706-18.974118-17.167059-27.708235l85.232941 0-7.830588-44.272941-31.322353-42.767059 39.454118 0-29.214118-165.345882c24.094118 30.418824 41.562353 62.072471 52.404706 95.171765l50.296471-7.228235c-3.614118-9.637647-7.228235-19.275294-11.143529-28.611765l28.912941 0 7.228235 39.454118 59.030588 0-6.927059-39.454118 65.355294 0-9.035294-51.802353-65.355294 0-9.035294-51.802353 76.8 0-9.336471-51.802353L640.602353 200.613647 626.447059 118.964706l-59.331765 0 14.155294 81.618824L484.592941 200.583529z"  horiz-adv-x="1024" />

    
    <glyph glyph-name="dongjie21" unicode="&#58945;" d="M30.117647 361.411765c0-266.24 215.642353-481.882353 481.882353-481.882353s481.882353 215.642353 481.882353 481.882353-215.642353 481.882353-481.882353 481.882353S30.117647 627.651765 30.117647 361.411765zM608.376471 266.24l57.494588 26.202353c20.178824-39.454118 38.279529-79.209412 54.241882-118.964706l-62.644706-30.72C641.505882 188.536471 625.242353 229.797647 608.376471 266.24zM387.614118 134.324706c-13.552941 11.444706-28.611765 23.220706-44.875294 35.237647 33.129412 37.647059 66.56 78.607059 99.689412 123.512471l48.790588-26.834824C456.583529 218.955294 421.948235 175.284706 387.614118 134.324706zM243.350588 174.682353c31.021176 53.910588 64.451765 118.392471 100.291765 193.957647 19.275294-11.745882 37.948235-21.985882 56.32-31.021176L295.152941 136.734118C279.792941 149.082353 262.625882 161.731765 243.350588 174.682353zM304.489412 524.950588l57.825882 34.334118c19.877647-32.527059 38.249412-65.355294 55.717647-99.388235l-62.644706-37.948235C340.028235 456.884706 322.861176 491.218824 304.489412 524.950588zM420.442353 467.425882l10.24 58.127059 83.124706 0c11.444706 18.672941 22.287059 37.948235 33.430588 57.825882l66.56-6.324706-31.322353-51.501176 183.115294 0-9.938824-58.127059-209.287529 0c-21.112471-33.430588-43.098353-67.162353-65.084235-101.195294l69.872941 0 12.980706 71.68 65.355294 0-12.649412-71.68L731.858824 366.230588l-9.938824-57.825882-115.320471 0-21.112471-119.868235c-3.584-18.974118-9.938824-33.701647-19.275294-44.272941-9.035294-10.24-20.48-16.564706-34.334118-18.672941-13.552941-1.837176-41.261176-3.011765-82.823529-3.011765 0.301176 16.865882 0 37.014588-0.903529 60.837647 18.070588-1.837176 33.129412-2.409412 45.477647-2.409412 16.564706 0 26.503529 7.830588 29.214118 23.792941l18.371765 103.604706-136.131765 0 11.745882 65.957647c21.082353 29.816471 41.562353 60.837647 61.741176 93.063529L420.442353 467.425882z"  horiz-adv-x="1024" />

    
    <glyph glyph-name="tixian21" unicode="&#58946;" d="M548.894118 450.469647l135.529412 0 4.517647 25.298824-135.529412 0L548.894118 450.469647zM696.470588 517.300706l4.517647 25.298824-135.529412 0-4.517647-25.298824L696.470588 517.300706zM48.941176 358.912c0-266.24 215.642353-481.882353 481.882353-481.882353s481.882353 215.642353 481.882353 481.882353c0 266.24-215.642353 481.882353-481.882353 481.882353S48.941176 625.121882 48.941176 358.912zM482.635294 205.281882c-14.155294-24.094118-30.117647-45.778824-48.188235-64.481882-22.889412 19.576471-37.647059 31.352471-44.875294 35.870118 38.249412 35.237647 65.355294 81.287529 81.92 137.607529l53.007059-11.745882c-4.517647-13.552941-9.336471-26.834824-14.155294-39.484235 14.757647-26.172235 28.611765-41.231059 40.96-44.875294l18.371765 103.303529-128.903529 0 9.336471 53.940706 312.621176 0-9.637647-53.940706-123.181176 0-5.12-28.882824 107.218824 0-9.035294-51.2-107.218824 0-5.722353-31.322353c40.056471-0.301176 82.191059-0.301176 126.494118 0.873412-6.324706-14.125176-13.854118-32.527059-22.588235-55.717647-60.837647-1.174588-109.658353-0.602353-146.974118 1.536C529.92 159.533176 501.609412 175.465412 482.635294 205.281882zM479.623529 398.034824l34.635294 196.969412 256 0-34.635294-196.969412L479.623529 398.034824zM313.072941 462.817882l10.24 58.127059 46.08 0 14.757647 82.823529 60.536471 0-14.456471-82.823529 37.647059 0-10.24-58.127059-37.647059 0-12.047059-68.065882 36.442353 9.035294c-4.517647-24.997647-8.432941-45.778824-10.842353-62.945882l-36.743529-10.24-21.684706-122.006588c-4.517647-24.967529-13.251765-41.532235-25.901176-49.664-12.649412-8.161882-39.755294-11.444706-81.317647-11.143529 0 17.769412 0 37.948235-1.204706 60.837647l34.936471 0c8.432941 0 13.552941 5.451294 15.661176 16.293647l15.661176 88.816941-45.477647-12.016941 7.228235 69.270588 49.995294 9.938824 14.456471 81.92L313.072941 462.848z"  horiz-adv-x="1024" />

    
    <glyph glyph-name="chongzhi21" unicode="&#58947;" d="M30.117647 376.470588c0-266.24 215.642353-481.882353 481.882353-481.882353s481.882353 215.642353 481.882353 481.882353-215.642353 481.882353-481.882353 481.882353S30.117647 642.710588 30.117647 376.470588zM560.459294 476.461176l52.404706 35.84c40.96-41.863529 79.540706-84.329412 116.254118-127.698824l-56.32-45.477647-28.912941 36.743529-50.296471-1.807059-20.781176-119.265882c-3.282824-16.564706 3.644235-24.395294 20.510118-24.395294l18.070588 0c13.854118 0 23.792941 4.216471 29.816471 12.950588 5.722353 8.734118 14.155294 31.954824 24.395294 69.872941 15.962353-8.161882 36.472471-16.896 61.470118-25.901176-18.100706-50.898824-34.635294-82.522353-49.694118-95.804235-15.058824-12.649412-37.345882-18.944-67.463529-18.642824l-54.543059 0c-42.134588 0-59.000471 23.461647-50.597647 70.776471l22.889412 128.301176-53.609412-2.409412c-27.105882-107.851294-89.750588-177.061647-188.536471-207.811765C271.058824 187.632941 258.710588 208.112941 248.771765 222.268235c84.931765 22.588235 137.938824 70.505412 159.322353 143.962353-32.225882-2.108235-56.922353-4.216471-74.390588-6.324706l-14.757647 55.717647c38.851765 20.781176 81.317647 53.308235 127.397647 97.581176l-138.842353 0 11.143529 62.042353 191.548235 0-10.24 39.152941 71.408941 15.058824 12.649412-54.211765 184.591059 0-11.113412-62.042353-225.581176 0c-33.430588-30.72-69.872941-60.837647-109.025882-90.955294 44.272941 0.602353 103.905882 2.108235 179.2 4.818824L560.459294 476.461176z"  horiz-adv-x="1024" />

    
    <glyph glyph-name="zhichu21" unicode="&#58948;" d="M419.237647 398.456471c19.275294-36.442353 44.875294-66.56 76.498824-90.955294 39.454118 24.997647 73.788235 55.416471 103.002353 90.955294L419.237647 398.456471zM30.117647 376.470588c0-266.24 215.642353-481.882353 481.882353-481.882353s481.882353 215.642353 481.882353 481.882353-215.642353 481.882353-481.882353 481.882353S30.117647 642.710588 30.117647 376.470588zM558.682353 456.583529l131.312941 0-9.637647-54.814118c-36.442353-50.597647-78.878118-93.635765-127.698824-128.873412 44.875294-21.413647 98.514824-34.936471 160.527059-40.688941-17.468235-21.955765-34.032941-44.544-49.995294-68.668235-69.571765 9.938824-130.078118 31.653647-181.007059 65.656471-61.741176-32.527059-131.614118-55.416471-209.618824-68.939294C264.734118 184.621176 256 206.305882 246.964706 224.677647c67.764706 8.161882 128.602353 24.094118 182.211765 47.585882-28.912941 28.039529-53.609412 61.138824-74.390588 99.689412l46.381176 26.503529-74.390588 0 10.541176 58.127059 149.082353 0 9.336471 53.910588-184.922353 0 10.24 58.127059 184.922353 0 10.541176 59.331765 72.282353 0-10.24-59.331765 184.018824 0-10.24-58.127059-184.018824 0L558.682353 456.583529z"  horiz-adv-x="1024" />

    
    </font>
</defs>
</svg>
